<svg width="394" height="79" viewBox="0 0 394 79" fill="none" xmlns="http://www.w3.org/2000/svg">
<path d="M393.62 47.0335C390.435 44.3804 387.222 41.5023 382.659 42.5662C379.407 43.327 376.267 44.5029 373.315 46.065C373.121 46.0678 372.929 46.0953 372.742 46.1468C372.121 46.1468 371.849 45.7786 372.019 44.8987C373.705 42.0476 375.059 39.0134 376.057 35.8551C377.005 35.2686 377.223 34.2933 377.421 33.3112V33.2771C378.785 30.549 380.149 27.8368 381.513 25.1406C381.768 24.9068 381.974 24.6249 382.119 24.3112C382.264 23.9975 382.346 23.6581 382.359 23.3127C383.764 21.3833 384.846 19.239 385.565 16.9631C385.672 16.5419 385.832 16.1362 386.042 15.7559C390.817 9.26309 390.632 8.25369 382.891 4.84358C382.245 4.66515 381.577 4.57792 380.906 4.58441C380.163 3.90239 379.474 4.09336 378.806 4.70718C378.717 4.69608 378.628 4.70445 378.543 4.73171C378.459 4.75897 378.381 4.80444 378.316 4.86493C378.251 4.92542 378.2 4.99944 378.167 5.08178C378.134 5.16411 378.119 5.25276 378.124 5.34146L376.214 8.83341C374.939 10.7129 373.901 12.7425 373.124 14.8761C372.265 15.8757 371.65 17.0621 371.33 18.3408C369.123 22.0074 367.201 25.838 365.58 29.7988C363.186 34.457 360.663 39.0606 358.992 44.053C357.484 46.1809 356.686 48.6226 355.82 51.0369L355.595 51.6848L353.044 51.5826C351.469 50.505 349.832 50.9005 348.202 51.4052C343.243 52.8852 338.298 54.3857 333.34 55.8725C330.816 56.6159 330.816 56.6159 330.366 55.661C330.55 53.1512 331.982 51.7053 334.172 50.5595C340.787 47.1031 347.737 44.3267 354.913 42.273C356.1 41.9319 357.641 41.8569 356.495 39.9268C355.131 37.6216 349.518 34.9003 346.994 35.6028C343.864 36.4826 340.631 37.0828 337.718 38.631H336.627C337.309 36.6599 338.032 34.6684 338.789 32.711C339.546 30.7536 340.058 28.4074 342.704 27.8823C342.966 27.9562 343.244 27.9537 343.505 27.8752C343.766 27.7967 343.999 27.6454 344.177 27.439C344.285 27.453 344.395 27.4383 344.496 27.3964C344.596 27.3545 344.684 27.2868 344.75 27.2003C345.78 27.3912 346.619 26.8729 347.479 26.45C347.732 26.5106 347.997 26.4936 348.241 26.4011C348.484 26.3087 348.694 26.1451 348.843 25.9317C350.516 25.8368 352.147 25.3708 353.617 24.5677C356.038 24.0357 358.494 23.6197 360.874 22.9308C362.92 22.3443 364.216 21.4167 361.843 19.3502C358.726 16.6221 355.459 15.1558 351.366 16.9222L350.214 17.0995C348.774 17.2973 347.335 17.4746 346.121 18.3203C335.843 20.496 326.055 24.2062 316.254 27.8686C314.29 28.6052 314.453 29.4714 315.736 30.7672C318.184 33.243 321.356 34.2183 324.602 35.0435C321.506 43.4733 318.464 51.7053 315.456 59.9305C314.678 61.1309 313.921 62.3449 313.989 63.8658C313.014 64.7933 313.389 65.639 314.078 66.5325C316.124 69.2606 322.352 70.952 325.544 69.622C329.083 68.1421 332.569 66.512 336.15 65.107C341.142 63.1428 346.101 61.0558 351.912 59.7327C350.493 63.5793 349.484 67.0167 347.977 70.2222C346.578 73.189 347.717 74.8054 350.023 76.4286C351.223 77.2607 353.283 76.9606 353.59 78.9998H357.682C359.251 78.5497 359.933 77.3835 360.465 75.9307C362.061 71.5863 363.684 67.2554 365.437 62.9723C365.681 62.2204 366.08 61.5282 366.609 60.9407C367.138 60.3532 367.784 59.8835 368.506 59.5622C374.468 57.1206 380.19 54.1401 386.24 51.9236C388.252 51.187 390.387 50.7369 392.263 49.6729C393.197 49.1068 394.711 48.6771 393.62 47.0335Z" fill="#02A2BA"/>
<path d="M311.071 58.0211C308.589 55.9751 305.867 54.2359 302.546 54.3109C297.231 54.4551 291.948 55.1917 286.797 56.507L285.433 56.5821C280.658 57.4482 275.884 58.2053 271.11 59.1942C260.714 61.3113 250.481 64.1578 240.485 67.7127C239.257 68.156 237.573 68.3947 239.121 70.3794C241.849 73.9736 247.865 75.8355 252.271 74.3555C261.47 71.2548 270.83 68.6548 280.31 66.5669C290.146 64.4253 300.09 62.9726 310.028 61.4449C310.86 61.3153 312.074 61.5677 312.251 60.3673C312.273 59.9078 312.176 59.4504 311.969 59.0394C311.763 58.6284 311.453 58.2776 311.071 58.0211Z" fill="#02A2BA"/>
<path d="M252.878 31.3549C253.239 30.6729 253.594 29.9295 253.955 29.2134L254.794 27.2151C255.022 27.0749 255.204 26.8709 255.316 26.6284C255.429 26.3858 255.468 26.1155 255.428 25.851C256.449 24.4597 257.185 22.8817 257.597 21.2064C258.436 19.5559 259.296 17.9123 260.107 16.2413C260.858 14.7068 260.558 13.4723 258.955 12.6743C258.728 12.3165 258.429 12.0102 258.076 11.7753C257.724 11.5403 257.326 11.3819 256.909 11.3103C251.452 8.13889 250.033 8.53447 247.469 13.8611C247.176 14.4612 246.787 15.0341 246.5 15.6275C246.453 15.6275 246.412 15.7093 246.384 15.8867C246.377 15.9684 246.391 16.0506 246.425 16.1254L246.248 16.2413C245.441 16.869 244.823 17.7067 244.461 18.6625C244.413 18.7443 244.372 18.833 244.331 18.9217C244.924 17.3843 245.432 15.8156 245.852 14.2225C244.863 11.0034 239.12 7.51825 235.956 8.15253C235.518 8.24817 235.114 8.45928 234.785 8.76391C234.456 9.06854 234.215 9.45559 234.087 9.88487C231.672 15.2183 229.249 20.5494 226.816 25.8783C226.066 27.9926 224.34 29.6635 223.986 31.9687C223.284 32.7321 222.811 33.6775 222.621 34.6968L215.903 36.8793L207.991 39.3278L213.243 26.5398C214.778 26.2125 216.326 25.9192 217.847 25.5509C219.845 25.0599 219.893 23.9004 218.529 22.7205C216.026 20.5449 213.284 18.7648 209.71 19.515C206.3 20.2311 202.889 21.0428 199.534 21.8134C199.25 21.7181 198.943 21.7142 198.657 21.8023C198.37 21.8904 198.119 22.066 197.938 22.3045L196.771 22.5091C196.524 22.4369 196.26 22.4428 196.016 22.5257C195.772 22.6087 195.559 22.7648 195.407 22.9729L194.766 23.1297C191.692 23.5858 188.687 24.4196 185.817 25.6123C183.88 25.6941 182.244 26.724 180.45 27.2764C179.21 27.3826 178.018 27.8079 176.992 28.5109C173.943 28.9474 171.256 30.4751 168.357 31.389C166.822 31.8733 166.747 32.8554 167.879 33.8443C169.926 35.6312 172.074 37.3022 175 37.3431C176.548 37.875 178.028 37.1726 179.965 36.7838C178.022 41.8649 175.825 46.4549 174.509 51.2768C172.817 57.6059 169.782 62.1891 162.969 63.4713C162.533 63.5921 162.113 63.7662 161.72 63.9897C160.69 64.4807 160.479 65.0809 161.188 66.1108C163.044 68.8388 168.732 70.7417 171.815 69.5209C174.543 68.4296 177.169 67.2225 179.843 66.063C182.299 65.4952 184.666 64.5909 186.875 63.3759L200.189 59.1405C204.185 58.6222 207.896 56.7466 212.015 56.5079C212.002 56.777 211.963 57.0442 211.899 57.3058C210.747 59.9998 209.778 62.803 208.373 65.3537C206.654 68.4706 207.541 70.4689 210.488 71.9011C211.797 72.5422 213.216 73.0128 214.525 73.6198C217.11 74.7997 218.822 73.9677 219.852 71.4237C220.459 70.9463 220.302 70.2438 220.391 69.6095C220.386 69.5171 220.37 69.4255 220.343 69.3367C221.312 67.0633 222.285 64.8104 223.263 62.5779L226.148 55.8054C226.784 55.1241 227.204 54.2698 227.355 53.3501C227.535 53.2098 227.674 53.0237 227.757 52.8113C227.757 52.6681 227.757 52.5181 227.757 52.368C228.376 51.5848 228.746 50.6349 228.821 49.6399C229.387 49.3944 229.415 48.8965 229.503 48.4055C229.574 48.4353 229.647 48.4582 229.722 48.4737C231.086 48.1395 231.324 46.9323 231.768 45.8888C231.938 44.9414 232.285 44.0345 232.791 43.2153C232.642 43.6734 232.521 44.1404 232.429 44.6134C232.458 44.8332 232.533 45.0445 232.648 45.2341C232.348 45.6433 232.293 46.3049 231.611 46.3458C231.884 48.3305 229.967 49.7013 230.124 51.6451C228.671 53.7593 227.846 56.1601 226.939 58.5199C226.416 59.7884 225.886 61.0547 225.35 62.3187H224.94C223.215 64.8286 220.78 67.0929 222.253 70.6394C224.302 72.712 226.866 74.202 229.681 74.9566C232.491 75.8091 234.019 75.0589 234.455 72.1535C235.599 70.5376 236.323 68.6626 236.563 66.6973C242.497 55.2052 247.551 43.2221 252.878 31.3549ZM230.963 58.3221H230.915C230.945 58.0263 231.054 57.7438 231.229 57.5036C231.159 57.7822 231.07 58.0556 230.963 58.3221ZM227.471 32.603L227.696 32.8281L227.635 32.8622C227.637 32.835 227.637 32.8075 227.635 32.7803L227.423 32.6917L227.505 32.6439C227.505 32.6439 227.471 32.6167 227.471 32.603ZM221.557 59.8498C221.448 59.6179 221.339 59.4065 221.23 59.1678C221.28 59.1292 221.324 59.0832 221.36 59.0314C221.406 58.9648 221.456 58.901 221.51 58.8404C221.506 59.1775 221.522 59.5146 221.557 59.8498ZM230.854 27.8766C231.29 28.2926 231.4 28.6132 231.345 28.8928C231.153 28.5682 230.989 28.2283 230.854 27.8766ZM198.586 30.9935C198.603 31.0343 198.629 31.0713 198.661 31.1026H198.613C197.078 31.5595 196.717 32.9577 196.226 34.1921C194.125 39.4505 191.52 44.4838 189.405 49.7286C188.687 51.7263 187.434 53.4886 185.783 54.8233C185.653 54.5754 185.441 54.3803 185.183 54.2709C185.217 53.9435 185.258 53.5888 185.292 53.2819V53.2069C185.367 53.2445 185.445 53.2764 185.524 53.3024C186.028 53.249 186.506 53.0504 186.9 52.7308C187.293 52.4112 187.585 51.9843 187.741 51.5019C188.887 48.2827 190.51 45.2136 190.974 41.7626C190.913 41.5233 190.819 41.2937 190.694 41.0806C191.676 38.5775 192.87 36.1495 193.382 33.4828L193.538 33.5442C195.084 32.4466 196.785 31.5868 198.586 30.9935ZM203.817 48.8761C203.917 48.6967 203.969 48.4948 203.969 48.2895C203.969 48.0843 203.917 47.8824 203.817 47.703H203.858C203.974 47.4506 204.09 47.2051 204.213 46.9528C204.249 46.8996 204.279 46.8424 204.301 46.7823L204.438 46.8232C207.857 48.3227 211.666 48.6907 215.31 47.8735C214.628 49.2375 214.212 50.7448 213.373 52.0407C213.353 51.9077 213.306 51.7802 213.236 51.6655C210.597 48.917 207.316 48.5078 203.817 48.8761ZM234.094 38.7003C235.07 37.1028 235.836 35.3858 236.372 33.592C236.44 33.592 236.494 33.592 236.57 33.592C236.867 33.4763 237.121 33.2697 237.295 33.0016C237.469 32.7335 237.554 32.4175 237.538 32.0983C237.757 31.654 237.891 31.173 237.934 30.6797C238.67 29.319 239.3 27.9029 239.816 26.4444L240.028 26.3898C240.746 25.5277 241.402 24.6161 241.992 23.6617C240.021 27.7538 238.152 31.9415 236.303 36.1154C235.69 37.4795 234.898 38.8094 234.182 40.153C234.22 39.9614 234.247 39.7679 234.264 39.5733C234.277 39.2751 234.219 38.9782 234.094 38.7071V38.7003Z" fill="#02A2BA"/>
<path d="M251.718 48.3568C248.199 53.3015 248.622 54.4609 254.194 56.9571C255.016 57.3228 255.87 57.6127 256.745 57.8233C258.928 58.3416 260.578 57.9324 261.785 55.6817C263.313 52.8309 265.196 50.1846 266.983 47.4497C267.931 46.8705 268.632 45.9625 268.954 44.899C269.295 43.7805 270.147 43.0575 270.939 42.2732C273.278 39.9339 275.665 37.6423 277.275 34.6891L277.957 34.0071C278.796 33.9662 279.117 33.3251 279.437 32.7181C280.288 32.2709 280.98 31.5702 281.415 30.7129C282.854 29.6217 283.338 30.9243 283.925 31.7632C287.458 36.8034 291.018 41.823 294.415 46.9519C295.152 48.1702 296.232 49.145 297.518 49.755C298.055 50.126 298.691 50.3248 299.343 50.3248C299.995 50.3248 300.631 50.126 301.168 49.755C302.297 49.8408 303.428 49.6267 304.448 49.1343C307.961 47.7703 308.275 46.9655 306.092 43.8418C302.682 38.9449 299.155 34.1298 295.677 29.2807L291.844 23.7358C291.073 22.5491 291.121 21.6079 292.369 20.6667C294.613 18.9685 296.755 17.1475 298.903 15.3333C299.544 14.7877 300.554 14.4262 300.356 13.2873C299.776 9.97945 291.632 7.31275 288.761 9.50204L288.079 10.0886C286.705 10.7165 285.507 11.6748 284.594 12.878L283.843 13.5601C283.456 13.6646 283.095 13.8475 282.782 14.0974C282.469 14.3473 282.21 14.6588 282.022 15.0128C278.056 18.0345 274.388 21.4282 271.068 25.1476C269.05 26.7786 267.22 28.6292 265.612 30.6652C264.677 30.938 264.609 31.8723 264.166 32.5339C263.184 33.2705 262.181 34.0071 262.12 35.4052C257.557 38.7676 254.938 43.8145 251.718 48.3568Z" fill="#02A2BA"/>
<path d="M154.524 1.32515C152.886 0.36294 150.999 -0.0926965 149.102 0.0156663C147.635 2.32577 146.418 4.78589 145.474 7.35422C144.894 7.62703 144.914 8.14537 144.928 8.65688C144.3 9.25033 143.885 10.0342 143.748 10.8871C142.997 11.8756 142.483 13.0238 142.247 14.2426C142.028 14.3919 141.852 14.597 141.738 14.8367C141.624 15.0765 141.576 15.3423 141.599 15.6067C140.735 17.4254 139.865 19.2328 138.987 21.0288C138.08 22.7747 137.043 24.4389 136.641 26.4304C136.088 26.7305 136.095 27.2761 136.034 27.7944C134.319 30.8183 132.898 33.9998 131.791 37.295C130.941 39.1137 130.086 40.9324 129.227 42.7512C127.276 41.9873 125.448 40.6369 123.157 41.3871C113.694 43.0375 104.352 45.316 95.1921 48.2073C94.234 48.085 93.2662 48.3447 92.498 48.9303C91.6318 48.5893 90.4518 49.4827 89.8175 48.2482C90.7459 47.5419 91.4438 46.5758 91.8227 45.4724L100.089 34.0281C101.365 33.1551 102.026 31.8115 102.818 30.5566C104.564 29.2539 105.218 26.9214 107.23 25.8507C107.947 27.9901 108.962 30.0175 110.245 31.8729C111.18 33.7758 112.141 35.665 113.048 37.5814C113.328 38.2643 113.813 38.8433 114.436 39.238C115.059 39.6328 115.79 39.8237 116.527 39.7844C119.228 39.7948 121.888 39.124 124.261 37.8338C125.571 37.0904 126.212 36.1219 125.23 34.5533C123.804 32.2958 122.502 29.9428 121.192 27.6239C120.17 24.7893 118.824 22.082 117.182 19.5556C117.352 17.8301 114.808 16.7116 116.275 14.6041C118.525 11.3782 118.259 10.6348 114.795 8.53412C110.948 6.19479 108.247 5.94925 106.473 8.0908C102.013 13.472 97.6748 18.9622 93.2892 24.4048L92.4161 25.5574C88.1007 30.3819 84.2206 35.5787 80.8211 41.087C77.8542 45.8134 78.243 46.6182 83.5494 49.2031C84.2314 49.5441 85.8888 49.1417 85.5069 50.8672C84.7225 50.9218 83.8699 50.7717 83.3038 51.5493C80.0504 51.8698 77.0221 53.0633 73.9528 54.0591C72.1453 54.6524 68.9465 54.3933 68.8987 56.3439C68.8442 58.615 71.627 59.8495 73.8164 60.8179C74.3344 60.9906 74.8695 61.1072 75.4124 61.1657C75.4798 61.2551 75.572 61.3228 75.6774 61.3603C75.7829 61.3979 75.897 61.4038 76.0058 61.3772C76.3115 61.6292 76.6805 61.7924 77.0726 61.8489C77.4648 61.9054 77.8649 61.8531 78.2293 61.6977C83.2493 60.2041 88.2556 58.6696 93.2346 57.1486L93.4529 57.21L93.6643 57.1555C93.8553 58.2603 93.0777 59.0106 92.648 59.8836C90.5564 64.1667 88.4693 68.4498 86.3867 72.7328C85.8411 74.2197 87.1097 74.9017 87.7508 75.8497C88.7057 77.3365 90.4245 77.4729 91.8432 78.1549C92.041 78.3868 92.232 78.6255 92.4298 78.8369H95.8401C97.934 77.3433 98.6092 75.0244 99.3936 72.7669C102.743 66.7856 106.071 60.7906 109.474 54.8298C110.006 53.8954 110.361 52.6541 111.671 52.4222C116.445 51.5697 120.953 49.6464 125.844 49.4827C125.844 50.1647 125.844 50.8945 125.844 51.597C125.585 52.961 124.227 53.8749 124.35 55.3822C124.309 55.5075 124.275 55.635 124.248 55.7641C124.247 55.6299 124.282 55.498 124.35 55.3822C123.654 56.2535 123.217 57.3028 123.088 58.4104C121.896 60.5548 120.995 62.8483 120.408 65.2306C119.853 65.9368 119.537 66.8017 119.508 67.6995C118.716 69.7865 116.568 71.6143 118.266 74.1787C118.514 74.6999 118.879 75.1562 119.334 75.5114C119.788 75.8666 120.32 76.1109 120.885 76.2248C121.792 77.3842 123.395 77.1933 124.459 78.0526L128.429 77.964C131.157 70.7709 133.885 63.5756 136.614 56.378C137.591 53.9045 138.571 51.4287 139.553 48.9507C140.268 48.1951 140.695 47.2129 140.76 46.1749C141.017 45.9236 141.219 45.6216 141.353 45.2882C141.487 44.9547 141.55 44.5971 141.538 44.238C144.324 38.668 146.828 32.9613 149.041 27.1397C151.878 21.8472 154.333 16.3637 156.659 10.8257C160.458 4.7489 160.199 3.62356 154.524 1.32515ZM95.8674 29.9701L95.765 30.0178L95.8537 29.9223C95.8515 29.9382 95.8515 29.9542 95.8537 29.9701L95.9219 29.9291L95.8674 29.9701ZM99.8097 34.0622C99.8866 34.081 99.9619 34.1061 100.035 34.1372L99.8097 34.0622ZM121.704 75.5359H121.656L121.765 75.495L121.704 75.5359ZM127.904 51.0445V51.0855C127.901 51.0743 127.901 51.0626 127.904 51.0514V51.0445Z" fill="#02A2BA"/>
<path d="M80.2007 26.4918C81.4444 24.9639 82.2127 23.1049 82.4106 21.1448C82.5062 21.1659 82.6059 21.1592 82.6978 21.1253C82.7897 21.0915 82.8699 21.0319 82.929 20.9538C84.6205 19.2624 85.3912 17.0527 86.3393 14.9452L87.0213 13.6289C87.6283 12.6946 88.3104 11.7943 88.8356 10.8122C91.5638 5.70382 90.8067 3.53499 85.1729 1.57758C83.0654 0.847821 80.3985 -1.00728 78.8843 2.6961C77.5202 5.09682 75.4331 7.14289 75.2899 10.1301C74.3145 10.1983 74.0349 11.0236 73.6802 11.6988C71.3158 16.1774 68.9649 20.6674 66.6277 25.1687L63.5653 31.1705C63.8206 31.3069 64.0367 31.5065 64.1928 31.7502C64.0119 31.5284 63.8007 31.3333 63.5653 31.1705C55.0532 33.2166 46.5684 35.3581 37.9335 36.804C37.2105 36.7222 36.508 36.6744 36.0306 37.2814L35.9555 37.1996C36.5054 36.7183 36.9431 36.1223 37.2378 35.4536C39.0657 34.2601 40.6481 32.7801 42.6943 31.7571C45.7976 30.1748 48.6214 28.0469 51.527 26.0895C53.6959 24.6299 53.389 23.2522 51.2541 21.9973C47.4687 19.8149 43.3559 18.4099 39.0453 19.0919C31.141 20.3294 23.4159 22.5211 16.0394 25.6189C15.9257 25.6093 15.8113 25.6259 15.7049 25.6673C15.5985 25.7086 15.503 25.7737 15.4256 25.8576C13.3794 26.0213 11.5583 27.0238 9.73037 27.8559C8.82323 28.2651 8.04568 28.8857 9.04831 30.1952C11.2309 33.0734 16.892 34.9285 20.35 33.6804C22.5826 32.8847 24.8016 32.0594 27.0069 31.2046C28.0709 30.7886 29.4692 30.0247 30.1649 30.8977C31.0856 32.0571 29.4419 32.7937 28.8007 33.5644C26.9114 35.8083 24.8857 37.9294 22.9146 40.0982C15.562 47.8187 8.23666 55.5596 0.836314 63.2324C-0.527804 64.5964 -0.070822 65.4421 1.11596 66.5402C5.6994 70.8096 9.38252 70.8847 15.4392 66.7175L19.5861 64.9033L29.0668 61.8274C30.3326 61.7177 31.5547 61.3111 32.6339 60.6407H32.9067L33.1318 60.4906C35.5431 60.1671 37.9023 59.532 40.1502 58.6014H40.423L40.6481 58.4514L50.879 56.4053C49.5149 51.7676 43.7037 49.1895 38.5337 50.9492C38.4317 50.9054 38.3194 50.8912 38.2097 50.9081C38.1 50.925 37.9972 50.9723 37.9131 51.0446C36.1661 51.0395 34.4422 51.4436 32.8795 52.2245L31.8086 52.4223L26.4613 53.4044L29.3327 49.742L30.4513 48.5143C30.5854 48.5074 30.7197 48.5074 30.8537 48.5143C31.5385 48.3562 32.1589 47.9937 32.6328 47.4748C33.1067 46.9558 33.4115 46.3051 33.5069 45.6089C34.4802 45.3528 35.495 45.2951 36.491 45.4392C37.4869 45.5833 38.4438 45.9263 39.3044 46.4478C40.5038 47.1167 41.9097 47.3137 43.2467 47.0002C47.7279 45.9568 52.2568 45.0224 56.3832 42.8536C56.2673 45.152 54.1324 46.8502 54.3029 49.2305C54.3575 49.4896 54.4189 49.742 54.4803 49.9875L51.3974 56.4804C51.9839 58.0013 49.6513 58.3627 50.0742 59.8223C48.5805 63.0619 47.0185 66.281 45.6135 69.5615C44.2494 72.7057 46.7866 73.8651 48.8465 74.8677C51.4383 76.1362 54.0642 78.3323 57.1949 76.0135C57.4323 75.7711 57.6058 75.4734 57.6996 75.1473C59.3183 71.2143 60.928 67.279 62.5286 63.3415C63.2925 62.3116 63.9541 61.2409 63.8927 59.8837C64.4247 59.0243 65.3728 58.3832 65.2568 57.2101C66.3812 55.4997 67.2605 53.6401 67.8691 51.6857L80.2007 26.4918ZM35.7373 55.8188H35.8873C35.8608 55.8551 35.838 55.8939 35.8191 55.9347L35.7373 55.8188ZM32.0269 52.6406C31.9495 52.5984 31.8783 52.5456 31.8154 52.4837L32.0269 52.6406ZM30.7446 41.7896L31.3926 41.3736C31.3636 41.4188 31.3317 41.4621 31.2971 41.5032C31.1543 41.66 30.9563 41.7554 30.7446 41.7691V41.7896ZM59.0364 60.5725L59.0705 60.6134V60.668L58.9818 60.552L59.0364 60.5725Z" fill="#02A2BA"/>
</svg>
