<svg width="392" height="55" viewBox="0 0 392 55" fill="none" xmlns="http://www.w3.org/2000/svg">
<path d="M120.471 54.2034H120.267L119.916 54.1276L119.712 54.0707C115.375 52.0618 114.854 48.5462 114.446 45.7128L114.299 44.7652C113.959 42.4625 113.619 40.084 113.404 37.6202C113.219 37.6614 113.029 37.6837 112.838 37.6865C112.558 37.6861 112.28 37.6377 112.023 37.5444C111.536 37.3847 111.13 37.0889 110.874 36.7071C110.618 36.3253 110.528 35.8812 110.619 35.4501V35.327C110.565 33.3095 111.327 31.3361 112.781 29.7266L113.042 29.3759C113.042 25.8982 113.121 22.591 113.325 19.3123C113.202 19.3915 113.074 19.4643 112.94 19.5302C112.259 20.0115 111.416 20.303 110.528 20.3641C110.172 20.3632 109.82 20.3004 109.494 20.1797C109.169 20.059 108.877 19.883 108.637 19.6629C107.572 18.7153 107.776 17.6255 109.248 16.3842L109.475 16.1757C114.006 11.9147 119.366 8.32631 125.329 5.56241C128.901 3.85754 132.627 2.38747 136.471 1.16549L136.709 1.08968C137.227 0.882716 137.789 0.766618 138.363 0.748537C138.778 0.748121 139.188 0.827339 139.561 0.980108C139.934 1.13288 140.26 1.35514 140.514 1.62982C141.499 2.63429 141.454 3.83776 140.378 5.19284C139.798 6.00507 139.018 6.7053 138.091 7.24752C137.164 7.78974 136.11 8.16169 134.999 8.33892C130.433 9.19612 126.108 10.7823 122.26 13.0107C122.079 16.2515 121.886 19.5776 121.931 22.9511C123.132 22.2404 124.377 21.5202 125.702 20.8758C128.11 19.697 130.666 18.7437 133.323 18.033C133.773 17.9059 134.242 17.8357 134.716 17.8245C135.037 17.8162 135.357 17.8651 135.654 17.968C135.95 18.071 136.218 18.2256 136.438 18.4215C136.714 18.7098 136.916 19.0434 137.029 19.4009C137.142 19.7583 137.164 20.1317 137.094 20.4968C137.021 21.8319 136.673 23.1464 136.064 24.382C135.796 24.9497 135.382 25.4612 134.852 25.8804C134.321 26.2995 133.688 26.6162 132.995 26.8079C129.221 27.9667 125.643 29.5307 122.35 31.4607L122.26 31.5175C122.758 36.1135 123.245 39.6291 123.822 42.8889C124.007 43.8384 124.354 44.7607 124.853 45.6275C125 45.8928 125.068 45.8928 125.193 45.8928C125.294 45.9001 125.397 45.9001 125.498 45.8928C126.199 45.7632 126.869 45.5358 127.48 45.22C132.895 42.3808 138.053 39.2137 142.915 35.7439C144.099 34.9025 145.413 34.1981 146.822 33.6497C147.439 33.3833 148.112 33.2192 148.803 33.1664V32.3609C148.679 30.2762 148.554 28.2104 148.373 26.1351V25.5381C148.033 21.5676 147.682 17.4739 146.912 13.5224L146.822 13.077C146.653 11.5507 146.15 10.0635 145.338 8.68954C145.035 8.24093 144.867 7.7371 144.849 7.22184C144.831 6.70657 144.964 6.19548 145.236 5.73298C146.087 4.13566 147.599 2.84984 149.494 2.1131C149.983 1.91883 150.516 1.81539 151.057 1.80986C151.621 1.81937 152.176 1.93913 152.675 2.1596C153.174 2.38006 153.605 2.69513 153.933 3.07967C155.229 4.53911 156.013 6.27163 156.198 8.08306C157.127 13.7687 157.783 19.8903 158.225 26.7037L158.463 30.6457C158.633 33.4317 158.803 36.2461 159.029 39.0416C160.648 34.3035 161.985 29.4991 163.23 24.979C163.978 22.2594 164.68 19.5397 165.393 16.8106L165.45 16.5642C165.982 14.5079 166.514 12.4421 167.069 10.3858C167.352 8.75739 168.286 7.25736 169.719 6.13098C170.295 5.71062 170.945 5.36558 171.644 5.10756C172.269 4.88657 172.937 4.76139 173.615 4.73799C174.328 4.73799 176.638 4.95594 176.706 7.85564C176.706 9.75086 176.627 11.6461 176.491 13.4655V13.7498C176.015 20.203 175.879 27.2533 176.061 35.2985C176.119 37.3815 176.35 39.4586 176.751 41.5149C177.204 40.4535 177.68 39.2975 178.099 38.1035C180.566 31.1825 182.424 24.1197 183.659 16.9717C184.148 14.5335 184.341 12.0604 184.237 9.58977C184.127 8.52485 184.362 7.45486 184.918 6.49257C185.474 5.53028 186.33 4.71134 187.396 4.12204C187.54 4.0358 187.676 3.94078 187.804 3.83776C188.56 3.13689 189.602 2.69758 190.725 2.60586C191.117 2.61221 191.502 2.68642 191.858 2.82381C193.613 3.52504 193.33 5.18337 193.183 5.97936C193.183 6.19731 193.126 6.34893 193.115 6.4816C192.354 19.7545 189.003 32.8338 183.195 45.2011C182.002 47.7716 180.133 50.0841 177.725 51.967C176.646 52.9442 175.157 53.5349 173.569 53.6159C172.154 53.6159 170.172 53.0568 168.904 50.394C167.648 47.6122 166.981 44.6684 166.933 41.6949C166.933 41.6949 166.933 41.5622 166.933 41.3443C165.84 44.2073 164.442 46.9824 162.755 49.6359C162.124 50.7642 161.177 51.7481 159.994 52.5039C158.811 53.2596 157.427 53.7646 155.96 53.976C155.65 54.0604 155.324 54.0989 154.998 54.0897H154.432C153.556 54.1002 152.702 53.8597 152.012 53.408C151.322 52.9564 150.837 52.3209 150.638 51.6069C149.974 49.5751 149.557 47.4925 149.392 45.3906C149.245 44.1871 149.087 42.8036 148.962 41.4106C148.365 41.8856 147.729 42.3257 147.06 42.7278L146.607 43.0026C141.593 46.1334 136.359 49.0099 130.934 51.6164C128.539 52.8513 125.901 53.7208 123.143 54.1845H122.883L120.471 54.2034Z" fill="#008A3A"/>
<path d="M120.471 53.7298H120.335L120.063 53.673H119.927C115.896 51.7777 115.398 48.4326 115.013 45.7035L114.865 44.7559C114.492 42.2258 114.107 39.6198 113.914 36.9097C113.619 37.1332 113.236 37.258 112.838 37.2603C112.632 37.2585 112.428 37.2231 112.238 37.156C111.872 37.02 111.57 36.7863 111.379 36.4914C111.189 36.1965 111.12 35.857 111.185 35.5262V35.3935C111.112 33.4339 111.848 31.513 113.269 29.9542L113.416 29.7931C113.503 29.7142 113.576 29.6247 113.631 29.5278C113.631 25.6425 113.733 21.9469 113.993 18.2796C113.822 18.413 113.641 18.5365 113.45 18.6492L113.348 18.7155C113.207 18.8366 113.052 18.9447 112.884 19.0377L112.589 19.1988C112.016 19.6113 111.304 19.8632 110.551 19.919C110.271 19.9189 109.995 19.87 109.74 19.7754C109.484 19.6807 109.255 19.5424 109.067 19.3693C107.844 18.2985 109.169 17.1709 109.668 16.7445L109.928 16.517C114.401 12.2955 119.696 8.73894 125.589 5.99852C129.142 4.31008 132.844 2.85278 136.664 1.6395L136.913 1.55421C137.364 1.3735 137.853 1.27038 138.351 1.25098C138.683 1.25205 139.009 1.31669 139.305 1.4399C139.602 1.56312 139.86 1.74163 140.061 1.96169C140.443 2.40478 140.634 2.94295 140.603 3.48846C140.572 4.03397 140.321 4.55465 139.892 4.96562C139.351 5.72245 138.626 6.37532 137.764 6.88153C136.901 7.38774 135.921 7.7359 134.886 7.90322C130.242 8.76438 125.842 10.3736 121.932 12.6413C121.694 12.7645 121.694 12.8024 121.694 12.8782C121.49 16.4507 121.275 20.1369 121.365 23.88C122.905 22.9324 124.366 22.089 125.974 21.312C128.34 20.1291 130.859 19.1754 133.482 18.4691C133.876 18.3534 134.288 18.2894 134.705 18.2796C134.948 18.2717 135.189 18.3073 135.414 18.3842C135.639 18.461 135.841 18.5772 136.007 18.725C136.231 18.967 136.392 19.2453 136.48 19.5423C136.567 19.8393 136.58 20.1483 136.517 20.4496C136.448 21.7293 136.115 22.9893 135.532 24.1737C135.288 24.679 134.917 25.1344 134.444 25.5089C133.972 25.8834 133.408 26.1681 132.791 26.3438C128.966 27.5229 125.342 29.1158 122.011 31.0818C121.682 31.2714 121.66 31.3377 121.694 31.6125C122.192 36.2369 122.668 39.7525 123.256 43.0407C123.466 44.0295 123.848 44.9873 124.389 45.8836C124.638 46.3289 124.898 46.4237 125.238 46.4237C125.381 46.4358 125.525 46.4358 125.668 46.4237C126.43 46.2795 127.157 46.0297 127.82 45.6846C133.262 42.8527 138.444 39.6852 143.323 36.2084C144.443 35.3781 145.688 34.6741 147.026 34.1142C147.642 33.8426 148.323 33.6903 149.019 33.6688H149.359L149.279 32.3611C149.166 30.3238 149.041 28.2295 148.86 26.1164V25.5194C148.521 21.5394 148.17 17.4362 147.388 13.4657L147.298 13.0203C147.127 11.436 146.6 9.89286 145.746 8.47179C145.491 8.0882 145.35 7.65857 145.336 7.21962C145.323 6.78066 145.436 6.34543 145.667 5.95114C146.458 4.46159 147.86 3.25816 149.619 2.55868C150.029 2.39234 150.477 2.30491 150.933 2.30283C151.411 2.31488 151.88 2.41953 152.303 2.6086C152.725 2.79766 153.09 3.066 153.367 3.39258C154.585 4.77746 155.322 6.41724 155.496 8.13065C156.425 13.8163 157.093 19.919 157.523 26.7134C157.614 28.04 157.693 29.3667 157.772 30.6933C157.988 34.2943 158.203 37.9899 158.554 41.6667C160.581 36.0852 162.177 30.4185 163.65 25.0645C164.397 22.3449 165.099 19.6157 165.801 16.8961L165.869 16.6497C166.401 14.5839 166.934 12.5276 167.488 10.4713C167.746 8.94275 168.617 7.5328 169.957 6.47233C170.485 6.07868 171.085 5.75872 171.735 5.52471C172.328 5.30195 172.966 5.17649 173.615 5.15514C174.351 5.15514 176.083 5.411 176.14 7.80846C176.14 9.70369 176.061 11.5989 175.925 13.4089V13.6647C175.449 20.1274 175.313 27.1872 175.495 35.2513C175.574 37.9406 175.927 40.6193 176.548 43.2587C177.329 41.534 178.042 39.8947 178.643 38.1795C181.103 31.2608 182.957 24.2014 184.191 17.0572C184.691 14.585 184.888 12.0767 184.78 9.57102C184.679 8.58601 184.898 7.5964 185.414 6.70717C185.931 5.81794 186.725 5.06224 187.713 4.52024C187.861 4.43496 188.008 4.32124 188.155 4.21701C188.814 3.59754 189.719 3.20004 190.703 3.09882C191.028 3.09856 191.35 3.16012 191.643 3.27887C193.024 3.82849 192.775 5.1741 192.651 5.93219C192.651 6.15014 192.583 6.33018 192.571 6.49128C191.805 19.6963 188.466 32.7079 182.685 45.0118C181.53 47.5299 179.711 49.7973 177.363 51.6451C176.383 52.5348 175.034 53.0772 173.592 53.1612C172.346 53.1612 170.625 52.6495 169.447 50.2331C168.206 47.5077 167.547 44.621 167.5 41.7046C167.5 41.7046 167.353 39.1839 167.33 38.6722C166.086 42.403 164.378 46.0142 162.234 49.4466C161.642 50.5097 160.75 51.4367 159.636 52.1481C158.522 52.8595 157.218 53.334 155.836 53.5308C155.556 53.6114 155.26 53.6499 154.964 53.6445H154.318C153.588 53.6342 152.883 53.4167 152.32 53.0276C151.756 52.6386 151.367 52.1011 151.216 51.5029C150.57 49.5004 150.156 47.4504 149.981 45.3813C149.789 43.7514 149.596 42.0268 149.483 40.34C148.674 41.1044 147.762 41.7881 146.765 42.3774L146.301 42.6522C141.313 45.7562 136.101 48.6013 130.696 51.1713C128.356 52.3789 125.78 53.2322 123.087 53.6919H120.471V53.7298Z" fill="#008A3A"/>
<path d="M191.405 3.6674C191.19 3.58104 190.954 3.53573 190.715 3.53473C189.898 3.63325 189.148 3.96863 188.597 4.48235C188.428 4.61385 188.25 4.73724 188.065 4.85191C187.155 5.34991 186.422 6.04402 185.944 6.86118C185.465 7.67833 185.259 8.58828 185.347 9.49522C185.469 12.0321 185.276 14.5727 184.769 17.0761C183.522 24.2682 181.653 31.3751 179.175 38.3406C178.383 40.5864 177.409 42.728 176.367 44.9739L176.31 44.737C175.485 41.6228 175.019 38.4495 174.917 35.2608C174.736 27.1872 174.917 20.099 175.348 13.6363V13.3804C175.484 11.561 175.62 9.67527 175.563 7.81795C175.506 5.96062 174.487 5.68581 173.615 5.68581C173.039 5.70985 172.474 5.82564 171.951 6.02696C171.356 6.23996 170.805 6.53107 170.32 6.88928C169.088 7.89105 168.291 9.2084 168.055 10.6324C167.478 12.7645 166.923 14.9061 166.368 17.0477C165.666 19.7768 164.964 22.506 164.216 25.2256C162.608 31.0724 160.819 37.2982 158.554 43.3819L158.418 43.7514C158.418 43.9031 158.316 44.0547 158.26 44.1968C157.761 39.7336 157.49 35.185 157.229 30.7786C157.15 29.452 157.071 28.1253 156.98 26.7986C156.55 20.0137 155.848 13.949 154.964 8.25385C154.799 6.60339 154.085 5.02458 152.903 3.69583C152.586 3.28244 152.097 2.98146 151.531 2.85036C150.965 2.71927 150.361 2.76724 149.835 2.98512C148.18 3.63236 146.857 4.75557 146.109 6.15015C145.918 6.47633 145.824 6.83642 145.836 7.19952C145.848 7.56262 145.965 7.9179 146.177 8.23489C147.057 9.71854 147.606 11.3243 147.796 12.973L147.876 13.4183C148.657 17.4173 149.008 21.5394 149.359 25.5194V26.1069C149.54 28.1727 149.653 30.2101 149.778 32.3611C149.778 33.0055 149.857 33.6594 149.903 34.3132C149.601 34.2081 149.278 34.1534 148.951 34.1521C148.342 34.1761 147.747 34.312 147.207 34.5501C145.89 35.0657 144.66 35.7253 143.55 36.5117C138.65 40.0148 133.446 43.2076 127.979 46.0636C127.281 46.4277 126.516 46.6934 125.714 46.8501C125.53 46.8935 125.339 46.9158 125.148 46.9165C124.848 46.9175 124.555 46.8393 124.311 46.693C124.067 46.5467 123.884 46.3397 123.789 46.1015C123.234 45.1566 122.852 44.1471 122.657 43.1071C122.068 39.8189 121.524 36.2843 121.083 31.6599C121.042 31.4719 121.074 31.2779 121.177 31.1069C121.279 30.936 121.444 30.7975 121.649 30.7123C125.021 28.7417 128.688 27.1488 132.554 25.9742C133.099 25.8282 133.598 25.5823 134.016 25.2545C134.433 24.9266 134.758 24.5251 134.966 24.079C135.522 22.9421 135.84 21.7336 135.906 20.5065C135.962 20.2695 135.959 20.0255 135.899 19.7893C135.839 19.5531 135.722 19.3296 135.555 19.1325C135.441 19.0316 135.301 18.953 135.147 18.9022C134.992 18.8515 134.826 18.8298 134.66 18.8387C134.32 18.8387 133.981 18.8769 133.652 18.9524C131.073 19.6673 128.596 20.6208 126.269 21.7952C124.682 22.5894 123.144 23.4497 121.66 24.3727L120.834 24.8655C120.686 20.7908 120.913 16.8108 121.139 12.9351C121.146 12.8039 121.196 12.6769 121.284 12.5682C121.372 12.4595 121.495 12.3732 121.638 12.3191C125.598 9.9911 130.064 8.33329 134.785 7.4389C135.737 7.28299 136.64 6.9622 137.436 6.49711C138.232 6.03203 138.902 5.43291 139.405 4.7382C139.764 4.40948 139.979 3.98834 140.014 3.54403C140.049 3.09971 139.902 2.65865 139.598 2.29336C139.45 2.12859 139.258 1.99486 139.038 1.90275C138.818 1.81065 138.575 1.7627 138.329 1.7627C137.905 1.78334 137.489 1.87349 137.106 2.02803L136.846 2.12279C133.05 3.32261 129.374 4.77061 125.85 6.45338C120.009 9.16953 114.759 12.694 110.325 16.8771L110.053 17.1235C109.555 17.5499 108.615 18.3459 109.453 19.0851C109.595 19.2179 109.77 19.3233 109.965 19.3937C110.161 19.464 110.372 19.4978 110.585 19.4925C111.214 19.4328 111.806 19.2147 112.284 18.8671L112.612 18.6871C112.74 18.6126 112.861 18.5302 112.975 18.4407C113.03 18.3915 113.09 18.3471 113.156 18.308C113.565 18.0618 113.944 17.7825 114.288 17.4741C114.432 17.3415 114.579 17.2183 114.73 17.1046C114.413 21.1698 114.266 25.2635 114.277 29.5751C114.277 29.7647 114.164 29.8973 113.948 30.1248L113.801 30.2859C112.498 31.7406 111.817 33.5191 111.865 35.3366C111.87 35.3934 111.87 35.4505 111.865 35.5072C111.808 35.7393 111.846 35.9806 111.974 36.1921C112.101 36.4037 112.31 36.573 112.567 36.6728C112.69 36.7135 112.82 36.7359 112.952 36.7391C113.137 36.7279 113.318 36.6841 113.482 36.6106C113.646 36.5371 113.789 36.4356 113.903 36.3127L114.05 36.199L114.537 35.8673C114.696 38.9091 115.126 41.8183 115.545 44.6517L115.681 45.5993C116.089 48.3568 116.542 51.4745 120.313 53.1802L120.584 53.2371H123.121C125.745 52.7852 128.255 51.9547 130.538 50.7827C135.919 48.201 141.111 45.3531 146.086 42.2542L146.539 41.9794C147.921 41.1741 149.121 40.1698 150.084 39.0134C150.174 41.0507 150.412 43.2018 150.661 45.315C150.795 47.3433 151.166 49.3556 151.771 51.3229C151.883 51.8235 152.197 52.2768 152.661 52.6064C153.125 52.936 153.71 53.1219 154.319 53.1328H154.976C155.226 53.1373 155.475 53.1052 155.712 53.0381C157.017 52.854 158.248 52.4066 159.3 51.7346C160.352 51.0626 161.192 50.1862 161.748 49.1813C164.409 44.8122 166.45 40.1975 167.829 35.4314C167.829 37.0234 167.908 38.6059 167.998 40.1695L168.078 41.6667C168.129 44.5238 168.773 47.3518 169.98 50.0246C171.045 52.2042 172.528 52.659 173.593 52.659C174.895 52.5729 176.11 52.0748 176.99 51.266C179.269 49.4803 181.038 47.2875 182.165 44.8507C187.932 32.5843 191.26 19.6103 192.017 6.44391C192.017 6.25438 192.017 6.04591 192.096 5.83743C192.221 5.07934 192.402 4.0654 191.405 3.6674Z" fill="#008A3A"/>
<path d="M255.805 54.2031H255.636H255.353H255.183C254.556 53.9464 253.999 53.5841 253.547 53.1389C253.095 52.6938 252.757 52.1754 252.555 51.6161L252.465 51.4266C251.261 48.9803 250.347 46.4412 249.736 43.8457C249.577 43.2677 249.43 42.7275 249.294 42.1779C247.595 43.3245 245.897 44.329 244.187 45.2955L243.134 45.902C238.416 48.8218 233.355 51.3302 228.027 53.3882C226.916 53.7779 225.753 54.0547 224.562 54.2126H221.833H221.607L221.267 54.1368L221.074 54.0136C216.726 51.9952 216.216 48.4795 215.809 45.6556L215.639 44.5375C215.31 42.2821 214.971 39.951 214.767 37.582C214.589 37.6193 214.407 37.6383 214.223 37.6388C213.948 37.6359 213.675 37.5909 213.419 37.5062C212.899 37.3489 212.465 37.0374 212.2 36.6305C211.935 36.2237 211.857 35.7497 211.981 35.2982L212.559 35.194H211.992C211.974 33.2102 212.734 31.2762 214.155 29.6883L214.382 29.442H214.439C214.382 26.3433 214.439 23.1972 214.699 19.3688C213.964 19.9854 212.995 20.3675 211.959 20.4491C211.595 20.4506 211.236 20.389 210.903 20.2683C210.569 20.1476 210.269 19.9704 210.022 19.7479C208.89 18.8003 209.173 17.6631 210.747 16.327L211.019 16.0901C215.529 11.857 220.858 8.28843 226.782 5.53368C230.406 3.80607 234.194 2.3292 238.106 1.1178L238.264 1.07042C238.738 0.900163 239.244 0.803815 239.759 0.786138C240.17 0.785366 240.576 0.863571 240.945 1.01472C241.314 1.16587 241.637 1.38594 241.888 1.65794C242.325 2.12976 242.562 2.7098 242.562 3.30679C242.562 3.90378 242.325 4.48382 241.888 4.95564C241.323 5.83362 240.53 6.59475 239.568 7.18336C238.606 7.77197 237.499 8.17316 236.328 8.35757C231.771 9.243 227.451 10.8304 223.588 13.0388V13.4273C223.419 16.5355 223.237 19.7289 223.271 22.9698L223.951 22.5718C227.223 20.6117 230.831 19.0781 234.652 18.0232C235.1 17.8899 235.57 17.8163 236.045 17.8053C236.365 17.7957 236.684 17.8432 236.981 17.9444C237.278 18.0457 237.545 18.1985 237.766 18.3928C238.046 18.6801 238.251 19.0131 238.368 19.3704C238.485 19.7278 238.511 20.1016 238.446 20.4681C238.365 21.8846 237.982 23.2775 237.313 24.5807C237.037 25.1041 236.628 25.5714 236.116 25.9508C235.604 26.3302 235.001 26.6128 234.346 26.7792C230.575 27.9403 227 29.5076 223.713 31.4414L223.6 31.5078L223.781 32.9955C224.177 36.5112 224.585 40.15 225.366 43.6562C225.438 43.9774 225.536 44.2941 225.661 44.6038C225.797 44.9449 226.272 46.0536 226.703 46.0536C227.31 45.9813 227.886 45.7825 228.378 45.4756C233.449 42.9013 238.28 40.0091 242.828 36.8239L243.202 36.5585C244.601 35.4913 246.162 34.5832 247.845 33.8578C247.018 29.1766 246.565 25.5094 246.361 22.0222C246.123 17.7484 245.852 12.9061 247.075 8.10171C247.392 6.75834 248.081 5.49576 249.086 4.41478C250.091 3.33381 251.383 2.46437 252.861 1.87589C253.286 1.65089 253.774 1.52343 254.277 1.50632C254.736 1.50339 255.183 1.63027 255.545 1.86642C255.96 2.12926 256.254 2.50352 256.377 2.92631C256.501 3.3491 256.447 3.79465 256.224 4.18807V4.28283C254.911 7.77005 255.092 11.5416 255.205 15.1899V15.4836C255.524 20.9031 256.205 26.3034 257.244 31.6594L257.391 32.4459C257.651 33.9337 257.912 35.4309 258.218 36.9186C258.659 35.6015 259.758 32.2564 259.758 32.2564C262.807 23.3539 267.023 14.7606 272.327 6.63291C273.25 5.01963 274.688 3.65182 276.483 2.68137C277.207 2.28781 278.044 2.06517 278.907 2.03699C279.637 2.03391 280.348 2.23762 280.922 2.61503C282.734 3.79955 281.942 5.56211 281.647 6.22544C280.657 8.30406 279.499 10.324 278.182 12.2712L277.468 13.2662C273.55 19.6908 270.303 26.3869 267.764 33.2798C265.766 38.2535 264.095 43.315 262.758 48.4416C262.158 50.858 260.494 52.5732 257.402 54.0231L257.198 54.0894L256.859 54.1747H256.643H255.76L255.805 54.2031Z" fill="#008A3A"/>
<path d="M255.805 53.7299H255.692H255.465H255.352C254.817 53.5027 254.341 53.1889 253.953 52.8066C253.564 52.4243 253.27 51.9812 253.087 51.503L252.996 51.3135C251.801 48.8674 250.898 46.3279 250.301 43.7326C250.075 42.8987 249.86 42.1122 249.656 41.3162C247.804 42.598 245.873 43.7968 243.869 44.9076L242.816 45.5141C238.134 48.414 233.11 50.9065 227.823 52.9529C226.733 53.3317 225.592 53.599 224.426 53.7489H221.787H221.651L221.368 53.692H221.232C217.212 51.7968 216.703 48.4422 216.329 45.7226L216.159 44.557C215.797 42.0648 215.412 39.5062 215.231 36.9761C214.93 37.1748 214.56 37.2848 214.177 37.2888C213.969 37.285 213.762 37.253 213.566 37.1941C213.179 37.05 212.862 36.7995 212.668 36.484C212.475 36.1686 212.416 35.8072 212.501 35.4599C212.501 35.3841 212.501 35.3462 212.501 35.3083C212.481 33.4252 213.205 31.5893 214.562 30.087L214.766 29.869C214.832 29.803 214.893 29.7334 214.947 29.6605C214.88 26.2681 214.947 22.7335 215.287 18.3745C215.015 18.564 214.755 18.763 214.472 18.9525L214.313 19.0567C213.662 19.5489 212.833 19.8457 211.958 19.9001C211.671 19.9007 211.387 19.8512 211.123 19.755C210.86 19.6588 210.624 19.5178 210.429 19.341C209.172 18.2608 210.61 17.0383 211.143 16.5835C211.278 16.4792 211.369 16.394 211.448 16.3276C215.914 12.1449 221.189 8.62109 227.053 5.90387C230.648 4.19575 234.401 2.73173 238.275 1.5259H238.434C238.84 1.37045 239.278 1.28351 239.725 1.27005C240.052 1.26857 240.375 1.33122 240.668 1.453C240.961 1.57477 241.216 1.75227 241.412 1.97128C241.764 2.37056 241.954 2.85378 241.954 3.35006C241.954 3.84633 241.764 4.32955 241.412 4.72883C240.885 5.54826 240.146 6.25867 239.249 6.80797C238.351 7.35727 237.318 7.73154 236.225 7.90334C231.594 8.79708 227.201 10.4037 223.271 12.6414C223.044 12.7551 223.044 12.793 223.033 12.8783V13.3995C222.84 16.8014 222.648 20.3076 222.727 23.8232C223.259 23.5105 223.769 23.1978 224.29 22.8756C227.512 20.9405 231.067 19.426 234.833 18.3839C235.226 18.2682 235.639 18.2043 236.056 18.1944C236.3 18.1876 236.543 18.2237 236.769 18.3004C236.995 18.3771 237.2 18.4928 237.369 18.6398C237.593 18.88 237.756 19.1561 237.848 19.4512C237.94 19.7462 237.958 20.0538 237.901 20.355C237.804 21.7175 237.421 23.0551 236.769 24.3065C236.522 24.7702 236.159 25.1838 235.703 25.5191C235.248 25.8543 234.711 26.1034 234.131 26.2491C230.311 27.4255 226.694 29.0186 223.373 30.9872C223.234 31.0605 223.104 31.1463 222.988 31.2431L223.191 32.9772C223.599 36.5118 224.007 40.1601 224.788 43.6757C224.866 43.9977 224.972 44.3145 225.105 44.6234C225.807 46.3954 226.419 46.3954 226.679 46.3954C227.389 46.3192 228.066 46.0979 228.65 45.751C233.745 43.1631 238.598 40.255 243.167 37.0519L243.541 36.7866C245.012 35.6975 246.668 34.7969 248.456 34.1143C247.687 30.0835 247.165 26.0224 246.893 21.947C246.655 17.7017 246.383 12.8973 247.595 8.14972C247.899 6.87627 248.554 5.6797 249.507 4.65493C250.461 3.63017 251.686 2.80541 253.087 2.24609C253.427 2.06381 253.817 1.95625 254.219 1.93337C254.556 1.9326 254.883 2.026 255.148 2.19871C255.454 2.40801 255.669 2.69686 255.757 3.01952C255.845 3.34219 255.802 3.68025 255.635 3.98022V4.08446C254.287 7.65696 254.446 11.4664 254.593 15.1621V15.4558C254.91 20.8916 255.594 26.308 256.643 31.679L256.779 32.4655C257.152 34.5976 257.537 36.7961 258.058 38.9566C258.723 36.9856 259.38 35.0146 260.029 33.0435L260.255 32.3328C263.313 23.469 267.528 14.9141 272.825 6.82306C273.697 5.28031 275.061 3.96872 276.766 3.03261C277.403 2.67987 278.143 2.47995 278.906 2.45456C279.511 2.44972 280.099 2.62051 280.571 2.93784C282.054 3.88546 281.397 5.37321 281.114 5.99864C280.151 8.06233 279.016 10.0667 277.717 11.997L277.049 13.0394C273.105 19.5004 269.835 26.2346 267.276 33.1667C265.276 38.1407 263.602 43.2022 262.26 48.3285C261.693 50.5933 260.119 52.2137 257.175 53.5878H257.051L256.767 53.6446H256.632L255.805 53.7299Z" fill="#008A3A"/>
<path d="M277.173 11.8169C278.466 9.90002 279.601 7.91175 280.57 5.86586C280.842 5.24044 281.363 4.09383 280.208 3.33574C279.831 3.08665 279.364 2.95291 278.883 2.95669C278.224 2.9857 277.587 3.16244 277.037 3.4684C275.423 4.35015 274.133 5.59036 273.312 7.05038C268.055 15.1097 263.878 23.6297 260.855 32.4559L260.697 32.9392C259.893 35.3556 259.1 37.7815 258.273 40.1979L258.217 40.3685C258.163 40.5385 258.098 40.7061 258.024 40.8707C257.243 38.1226 256.745 35.2798 256.269 32.5317L256.122 31.7452C255.071 26.3553 254.387 20.9199 254.072 15.4652V15.162C253.925 11.4284 253.766 7.58104 255.148 3.91378V3.81902C255.268 3.61143 255.302 3.37583 255.242 3.15048C255.182 2.92513 255.033 2.72326 254.819 2.57765C254.652 2.46573 254.444 2.40548 254.231 2.40707C253.91 2.43085 253.603 2.52214 253.336 2.67241C252.012 3.19981 250.853 3.97788 249.951 4.94501C249.049 5.91213 248.428 7.04173 248.138 8.24437C247.006 12.9824 247.21 17.7205 247.447 21.9279C247.71 25.9808 248.22 30.0197 248.976 34.0289C249.044 34.3985 249.044 34.3985 248.772 34.4838C246.983 35.1843 245.333 36.1112 243.88 37.2319L243.507 37.5067C238.913 40.7248 234.033 43.6456 228.91 46.2437C228.241 46.6399 227.461 46.8848 226.645 46.9544C226.011 46.9544 225.264 46.6985 224.527 44.8602C224.39 44.5258 224.28 44.1838 224.199 43.8367C223.406 40.2832 222.999 36.6254 222.591 33.0908L222.399 31.3946C222.399 31.0724 222.489 30.9681 223.01 30.6649C226.38 28.6971 230.042 27.1043 233.904 25.9268C234.405 25.7998 234.867 25.5832 235.258 25.2919C235.649 25.0007 235.96 24.6418 236.169 24.2401C236.784 23.0384 237.141 21.7552 237.222 20.4496C237.313 19.9685 237.179 19.4764 236.848 19.0756C236.73 18.976 236.589 18.8984 236.433 18.8478C236.276 18.7971 236.109 18.7747 235.942 18.7818C235.583 18.7961 235.228 18.8536 234.889 18.9524C231.176 19.978 227.671 21.4702 224.493 23.3778L222.421 24.6381L222.161 24.7897C222.025 20.895 222.24 17.0856 222.444 13.4183V12.8972C222.451 12.766 222.501 12.639 222.589 12.5303C222.677 12.4216 222.799 12.3353 222.942 12.2812C226.934 10.006 231.396 8.37057 236.101 7.45785C237.113 7.29672 238.069 6.94851 238.9 6.43865C239.73 5.92878 240.414 5.27013 240.902 4.51078C241.193 4.19071 241.351 3.79957 241.351 3.39733C241.351 2.99509 241.193 2.60395 240.902 2.28388C240.757 2.12179 240.569 1.99024 240.353 1.89975C240.137 1.80926 239.898 1.76233 239.656 1.7627C239.265 1.77869 238.881 1.85583 238.524 1.99012L238.366 2.03751C234.521 3.23394 230.798 4.68852 227.234 6.38705C221.427 9.07455 216.199 12.5561 211.765 16.6876L211.448 16.9624C210.893 17.4362 209.863 18.308 210.735 19.0661C210.881 19.1947 211.056 19.2972 211.251 19.3672C211.446 19.4373 211.655 19.4735 211.867 19.4736C212.649 19.3805 213.371 19.0701 213.917 18.5923L214.087 18.4786C214.698 18.0616 215.287 17.6068 215.898 17.133C215.536 22.0227 215.4 25.8984 215.468 29.5752C215.468 29.7362 215.378 29.8594 215.174 30.0679L214.981 30.2669C213.705 31.6866 213.02 33.4178 213.033 35.1945C213.033 35.2608 213.033 35.3272 213.033 35.3935C212.957 35.6378 212.986 35.8967 213.114 36.1252C213.242 36.3537 213.462 36.5374 213.736 36.6443C213.865 36.6891 214.003 36.7117 214.143 36.7107C214.336 36.6994 214.524 36.6549 214.696 36.5798C214.867 36.5048 215.019 36.401 215.14 36.2748C215.212 36.2143 215.292 36.1603 215.378 36.1137C215.499 36.0509 215.61 35.9743 215.706 35.8863C215.853 38.7291 216.272 41.6477 216.68 44.4148L216.85 45.5803C217.235 48.1863 217.699 51.4366 221.481 53.1612L221.753 53.2181H224.301C225.405 53.0691 226.485 52.8115 227.517 52.4505C232.77 50.4136 237.763 47.9372 242.42 45.0592L243.473 44.4432C245.737 43.2032 247.897 41.8355 249.939 40.3495C250.199 41.4393 250.471 42.4532 250.765 43.5524C251.361 46.1089 252.256 48.6101 253.438 51.0196L253.528 51.1997C253.68 51.6251 253.933 52.0205 254.272 52.3624C254.61 52.7043 255.028 52.9856 255.499 53.1897H255.725H256.541L256.812 53.1328C259.598 51.8251 261.082 50.29 261.625 48.1863C262.964 43.0343 264.639 37.9475 266.642 32.9487C269.215 26.0027 272.492 19.2533 276.437 12.774L277.173 11.8169Z" fill="#008A3A"/>
<path d="M359.33 54.014C358.492 54.014 357.065 53.7297 356.816 51.7776C356.226 45.7402 356.557 39.6645 357.801 33.6971C359.081 26.8156 360.798 19.9958 362.942 13.2666C360.118 13.9832 357.347 14.8375 354.642 15.8251C352.418 16.64 350.245 17.5477 348.13 18.5448C347.583 18.8446 346.95 19.0178 346.296 19.047C345.938 19.0531 345.584 18.9847 345.265 18.848C344.452 22.1911 343.9 25.5749 343.612 28.978C343.272 32.4652 343.193 36.0283 343.103 39.4681C343.035 42.1498 342.967 44.9169 342.774 47.646C342.714 48.3385 342.612 49.028 342.468 49.7118L342.333 50.413C342.288 51.1277 341.933 51.8041 341.335 52.3153C340.736 52.8266 339.935 53.1374 339.083 53.1895H338.743C337.157 53.1895 336.036 52.403 335.402 50.8584C333.772 46.8658 332.126 42.8637 330.465 38.8521C329.219 35.8451 327.981 32.8411 326.751 29.8403C325.244 26.2015 323.772 22.5532 322.221 18.8101L321.36 16.678C321.055 17.8625 320.771 18.9996 320.466 20.1368C318.969 25.6238 317.834 31.1758 317.068 36.7674C316.588 40.0585 316.395 43.3744 316.491 46.6889C316.649 49.816 315.359 52.0524 312.641 53.5402L312.494 53.597L312.188 53.6728H312.029H311.486H311.271L310.874 53.5402L310.693 53.4454C310.406 53.2257 310.178 52.9575 310.023 52.6586C309.869 52.3597 309.793 52.0368 309.798 51.7113C309.82 50.9136 309.774 50.1156 309.662 49.3233C309.475 48.0964 309.475 46.8545 309.662 45.6276C309.758 44.9992 309.796 44.3656 309.776 43.7324V43.2775L308.643 43.9408C308.145 44.2441 307.669 44.5473 307.171 44.8221L305.212 45.9593C301.412 48.233 297.415 50.2665 293.254 52.0429L292.993 52.1472C291.356 52.8924 289.591 53.4229 287.762 53.7202H285.021H284.783H284.67C281.273 52.3935 280.367 49.8255 279.959 47.7408C279.223 44.0261 278.827 40.2736 278.487 36.9474C278.205 37.1372 277.853 37.2408 277.491 37.2412C277.241 37.239 276.994 37.1939 276.766 37.1085C276.404 36.9493 276.113 36.696 275.937 36.3868C275.762 36.0775 275.711 35.7289 275.792 35.3934C275.792 35.327 275.792 35.2891 275.792 35.2417C275.739 33.3898 276.442 31.5781 277.785 30.1057C278.091 29.7645 278.227 29.5845 278.215 29.3571C278.215 25.8225 278.295 22.1078 278.533 18.3079L278.385 18.4406C278.252 18.5664 278.104 18.6807 277.944 18.7817L277.638 18.9902C276.969 19.5101 276.113 19.83 275.203 19.8999C274.638 19.8946 274.097 19.7041 273.697 19.3692C272.395 18.2984 273.878 17.0002 274.592 16.3748L274.875 16.1284C281.085 10.5269 288.636 6.08388 297.036 3.08922C298.61 2.51118 300.15 1.99946 301.736 1.48775C302.113 1.35579 302.516 1.28196 302.925 1.2698C303.218 1.26766 303.509 1.31717 303.778 1.41512C304.047 1.51307 304.289 1.65727 304.487 1.83837C304.846 2.16265 305.075 2.5725 305.142 3.01075C305.209 3.44901 305.111 3.89384 304.861 4.28321C304.442 5.16566 303.771 5.94858 302.906 6.56322C302.041 7.17786 301.01 7.60541 299.901 7.80833C295.116 8.68107 290.575 10.3153 286.527 12.6222C286.256 12.7644 286.256 12.7928 286.256 12.8591C285.938 16.5359 285.938 20.241 285.95 23.8514L286.878 23.3018C290.213 21.2342 293.916 19.6192 297.851 18.5164C298.291 18.3817 298.754 18.305 299.222 18.2889C299.459 18.2825 299.694 18.317 299.915 18.3904C300.135 18.4638 300.335 18.5744 300.501 18.7154C300.734 18.9863 300.898 19.2942 300.984 19.62C301.069 19.9459 301.075 20.2829 301 20.6106C300.926 21.4505 300.771 22.2841 300.535 23.1028C300.358 23.9128 299.914 24.6655 299.254 25.2764C298.594 25.8873 297.744 26.3323 296.798 26.5616C293.165 27.6702 289.735 29.198 286.607 31.1007C286.29 31.2807 286.278 31.3471 286.301 31.5555C286.675 35.7155 287.241 39.8092 287.988 43.7418C288.079 44.0838 288.2 44.4196 288.351 44.7463L288.452 44.9832C289.098 46.4899 289.585 46.4899 289.845 46.4899C290.426 46.4404 290.986 46.2851 291.487 46.0351C293.977 44.8922 296.366 43.6001 298.633 42.1688C302.03 40.103 304.85 38.3783 307.545 36.3694L307.703 36.2652C308.428 35.6597 309.281 35.1714 310.217 34.8248C311.52 34.4268 311.791 33.6971 312.052 32.2568C313.372 24.2652 315.439 16.3726 318.235 8.65171L318.507 7.93152C318.889 6.78078 319.385 5.6587 319.99 4.57697C320.273 4.06725 320.627 3.58702 321.043 3.14608C321.295 2.80014 321.638 2.50734 322.046 2.29041C322.455 2.07347 322.918 1.93825 323.399 1.89523C323.559 1.89227 323.719 1.90822 323.874 1.94261C324.366 2.06135 324.79 2.32354 325.071 2.68166C325.351 3.03977 325.469 3.47011 325.403 3.89469C325.39 3.99232 325.39 4.09082 325.403 4.18845C326.471 9.99694 328.126 15.719 330.352 21.2929C331.938 25.586 333.806 29.8029 335.946 33.9246C336.127 32.7116 336.285 31.5366 336.421 30.3521C337.371 21.3216 339.98 12.4678 344.156 4.10317C344.703 2.98775 345.468 1.95649 346.421 1.05185C346.733 0.729404 347.126 0.468139 347.572 0.286419C348.018 0.1047 348.506 0.0069364 349.002 0C349.31 0.00856506 349.613 0.0678297 349.894 0.174405C350.174 0.280981 350.427 0.432777 350.637 0.621115C350.847 0.809452 351.011 1.03064 351.12 1.27202C351.228 1.51341 351.278 1.77026 351.267 2.02789C351.346 3.07438 351.149 4.1226 350.69 5.09816L350.441 5.65725C350.022 6.60487 349.591 7.63776 349.172 8.64223C354.541 6.30445 360.209 4.48291 366.068 3.21241C366.966 3.03677 367.803 2.68975 368.514 2.19846C369.3 1.50937 370.367 1.09324 371.503 1.0329C372.398 1.07177 373.262 1.32142 373.995 1.75308C378.128 1.09923 382.148 0.682282 386.61 0.255856C387.121 0.205256 387.635 0.183097 388.15 0.189523H389.158C389.79 0.173474 390.409 0.33852 390.914 0.657332C391.418 0.976144 391.778 1.4296 391.932 1.94261L392 2.19846V5.54354V5.73306C391.072 9.38137 387.606 9.59932 385.308 9.74147C380.825 10.055 376.37 10.5994 371.968 11.3714H371.888C369.085 19.887 367.022 28.5614 365.717 37.3265C365.19 40.2649 365.159 43.2507 365.626 46.1962C366.328 49.7213 363.871 51.7397 361.957 52.9432C361.64 53.1422 361.323 53.3317 360.995 53.5117L360.576 53.7581L360.417 53.8339L360.134 53.9382H359.942C359.741 53.9789 359.536 54.0043 359.33 54.014Z" fill="#008A3A"/>
<path d="M359.33 53.5591C358.198 53.5591 357.518 52.9526 357.382 51.7586C356.795 45.7464 357.126 39.6961 358.367 33.7539C359.692 26.6034 361.492 19.52 363.758 12.5369C360.576 13.3118 357.459 14.2615 354.427 15.3797C352.182 16.2003 349.99 17.1176 347.859 18.1278C347.391 18.3826 346.853 18.5327 346.296 18.5637C346.015 18.5774 345.735 18.5219 345.492 18.404C345.248 18.2861 345.051 18.111 344.926 17.9004C343.986 21.535 343.358 25.2211 343.046 28.9306C342.717 32.4273 342.627 35.9998 342.536 39.4491C342.468 42.1214 342.4 44.8884 342.208 47.6081C342.151 48.2846 342.053 48.9583 341.913 49.6265C341.913 49.8634 341.812 50.1003 341.778 50.3372C341.746 50.9458 341.448 51.5235 340.941 51.9603C340.434 52.3971 339.752 52.6626 339.026 52.7062H338.743C338.075 52.6746 337.438 52.4598 336.93 52.095C336.422 51.7301 336.073 51.2356 335.934 50.6878C334.304 46.6983 332.65 42.7089 331.008 38.7194C329.763 35.7123 328.521 32.7084 327.283 29.7076C325.788 26.0688 324.304 22.4205 322.753 18.6679L321.236 14.8775L321.054 15.5787C320.658 17.1233 320.296 18.5732 319.922 20.023C318.422 25.5255 317.288 31.0934 316.525 36.701C316.048 40.0335 315.863 43.3907 315.97 46.7457C316.128 49.6833 314.951 51.787 312.38 53.18L312.074 53.2558H311.531L311.135 53.1232C310.906 52.9508 310.724 52.7403 310.599 52.5052C310.474 52.2702 310.41 52.0158 310.41 51.7586C310.444 50.93 310.41 50.1005 310.308 49.2759C310.127 48.0899 310.127 46.8893 310.308 45.7033C310.413 45.0471 310.455 44.3847 310.432 43.7228C310.432 43.2775 310.432 42.8226 310.432 42.3677C309.719 42.7373 309.051 43.1448 308.394 43.5523L306.911 44.443L304.918 45.5612C301.139 47.8235 297.165 49.8475 293.027 51.6165L292.778 51.7207C291.174 52.4435 289.448 52.958 287.66 53.2463H285.123L284.885 53.199C281.737 51.9576 280.888 49.5412 280.492 47.5607C279.721 43.666 279.302 39.7808 278.94 35.8197C278.858 35.8963 278.767 35.9662 278.668 36.0282L278.476 36.1893C278.362 36.3277 278.212 36.4429 278.037 36.5265C277.863 36.6101 277.668 36.66 277.468 36.6726C277.299 36.6718 277.133 36.6394 276.981 36.5778C276.728 36.4589 276.529 36.2744 276.412 36.0522C276.296 35.83 276.269 35.5821 276.336 35.3459C276.336 35.2796 276.336 35.2133 276.336 35.1469C276.301 33.4041 276.976 31.7032 278.249 30.3236C278.573 30.0454 278.766 29.6786 278.793 29.2907C278.793 25.3297 278.895 21.1696 279.189 16.9054L277.978 18.0046C277.861 18.1068 277.736 18.2018 277.604 18.2889L277.298 18.4974C276.74 19.0037 275.994 19.3375 275.18 19.445C274.969 19.4466 274.76 19.4122 274.565 19.3438C274.37 19.2753 274.195 19.1743 274.048 19.047C273.142 18.3078 274.275 17.3128 274.954 16.7253L275.237 16.4695C281.412 10.9047 288.921 6.49367 297.274 3.52507C298.803 2.95651 300.354 2.44479 301.939 1.93308C302.251 1.81933 302.585 1.75506 302.925 1.74356C303.139 1.74379 303.35 1.78191 303.545 1.8554C303.74 1.92889 303.915 2.0361 304.057 2.16999C304.33 2.42398 304.503 2.74236 304.551 3.0816C304.6 3.42083 304.522 3.76436 304.329 4.06521C303.948 4.87596 303.336 5.59663 302.547 6.16469C301.757 6.73275 300.814 7.13105 299.799 7.325C294.937 8.20741 290.324 9.86425 286.21 12.2052C285.814 12.4232 285.701 12.5464 285.678 12.8117C285.338 16.7253 285.361 20.6295 285.384 24.7516C285.384 24.7516 286.652 23.984 287.195 23.6713C290.482 21.6291 294.132 20.0304 298.01 18.9333C298.396 18.8165 298.8 18.7494 299.21 18.7343C299.37 18.7283 299.529 18.7505 299.677 18.7995C299.825 18.8485 299.959 18.9231 300.071 19.0186C300.25 19.2341 300.374 19.4786 300.434 19.7363C300.495 19.994 300.491 20.2595 300.422 20.5158C300.35 21.3296 300.202 22.1376 299.98 22.9322C299.82 23.6661 299.417 24.3475 298.816 24.8987C298.215 25.45 297.442 25.8488 296.583 26.0498C292.883 27.17 289.388 28.7169 286.199 30.6458C286.01 30.7269 285.856 30.8555 285.758 31.0135C285.661 31.1715 285.625 31.3511 285.655 31.5271C286.029 35.6966 286.607 39.8092 287.354 43.7513C287.444 44.1305 287.576 44.5018 287.75 44.86L287.841 45.0779C288.52 46.6794 289.166 46.8973 289.766 46.8973C290.438 46.8493 291.089 46.6744 291.668 46.3856C294.216 45.2479 296.661 43.9557 298.984 42.5194C302.381 40.4441 305.201 38.7289 307.941 36.6915L308.088 36.5778C308.765 36.0136 309.56 35.5576 310.432 35.2322C312.063 34.73 312.358 33.7445 312.618 32.2946C313.964 24.3379 316.047 16.4807 318.846 8.7938L319.118 8.06414C319.468 6.94083 319.93 5.84407 320.5 4.7854C320.762 4.30844 321.093 3.85981 321.485 3.44926C321.684 3.16743 321.956 2.92662 322.282 2.74458C322.607 2.56254 322.977 2.4439 323.365 2.39741C323.478 2.3881 323.591 2.3881 323.704 2.39741C324.757 2.60589 324.837 3.44926 324.837 3.90412C324.825 4.01761 324.825 4.13176 324.837 4.24526C325.904 10.0844 327.571 15.8356 329.819 21.435C331.559 26.2236 333.682 30.909 336.172 35.4596C336.207 35.5211 336.237 35.5844 336.263 35.6492L336.399 34.7016C336.625 33.2138 336.829 31.8113 336.987 30.371C337.929 21.3894 340.523 12.5833 344.677 4.26421C345.193 3.19925 345.916 2.21306 346.817 1.34556C347.068 1.06056 347.393 0.827106 347.768 0.662918C348.142 0.498729 348.557 0.408115 348.98 0.397949C349.459 0.424788 349.908 0.607131 350.229 0.906203C350.55 1.20527 350.72 1.59748 350.701 1.99942C350.768 2.96878 350.582 3.93872 350.157 4.84226L349.942 5.49611C349.353 6.86067 348.753 8.26314 348.187 9.65613C353.881 7.03106 359.95 5.02183 366.249 3.67669C367.23 3.47819 368.143 3.09584 368.921 2.55851C369.608 1.94978 370.54 1.57514 371.537 1.50666C372.399 1.56124 373.224 1.821 373.915 2.25527H374.153C378.253 1.61089 382.273 1.19394 386.712 0.758042C387.189 0.704863 387.669 0.67323 388.15 0.663281H389.146C389.659 0.649148 390.162 0.781146 390.574 1.03766C390.985 1.29417 391.281 1.66 391.411 2.07523V2.2837V5.68563C390.573 8.92647 387.482 9.11599 385.228 9.26761C380.727 9.57036 376.253 10.1084 371.832 10.8786C371.413 10.9544 371.401 10.9923 371.334 11.2197C368.507 19.7607 366.437 28.4644 365.139 37.2601C364.6 40.2422 364.57 43.2732 365.049 46.2624C365.694 49.5412 363.384 51.4175 361.595 52.5546L360.655 53.1137L360.236 53.3601H360.123L359.896 53.4454H359.772L359.33 53.5591Z" fill="#008A3A"/>
<path d="M390.857 2.22685C390.765 1.90895 390.545 1.62747 390.233 1.43045C389.921 1.23344 389.537 1.1331 389.147 1.14657H388.15C387.689 1.14318 387.227 1.16216 386.769 1.20343C382.341 1.63933 378.355 2.0468 374.312 2.68171C374.179 2.71136 374.042 2.72727 373.904 2.72909C373.81 2.72948 373.716 2.70993 373.633 2.67223C373.03 2.28346 372.307 2.04676 371.549 1.98995C370.681 2.06428 369.876 2.40126 369.284 2.93756C368.45 3.52264 367.466 3.93785 366.408 4.15051C359.815 5.55131 353.48 7.69347 347.576 10.5185L347.383 10.6132L347.168 10.7175C347.938 8.718 348.81 6.74697 349.637 4.73803C350.052 3.8988 350.23 2.99089 350.158 2.08471C350.09 1.48771 349.886 0.966525 349.025 0.909668C348.685 0.918307 348.352 0.990945 348.05 1.12219C347.748 1.25343 347.485 1.4399 347.281 1.66776C346.423 2.49795 345.731 3.43874 345.232 4.45374C341.093 12.7291 338.51 21.491 337.577 30.4278C337.35 32.5505 336.999 34.6542 336.693 36.8621C336.206 36.5686 335.854 36.1436 335.697 35.6587C333.197 31.0854 331.063 26.378 329.31 21.5676C327.065 15.941 325.394 10.1651 324.316 4.30212C324.226 3.77146 324.441 3.01337 323.625 2.85228C322.81 2.69118 322.391 3.26923 321.972 3.70513C321.607 4.09158 321.296 4.51118 321.043 4.95598C320.364 6.24792 319.803 7.58166 319.367 8.94543C316.582 16.6086 314.507 24.4401 313.162 32.3704C312.89 33.8582 312.528 35.0806 310.603 35.6776C309.757 36.0168 308.99 36.4788 308.338 37.0422C305.484 39.1553 302.415 41.0316 299.335 42.8984C297.023 44.3578 294.586 45.6722 292.042 46.831C289.54 47.9302 288.351 47.4659 287.422 45.258C287.198 44.8056 287.027 44.3359 286.913 43.8555C286.131 39.7808 285.576 35.6966 285.203 31.5365C285.163 31.2772 285.218 31.0141 285.359 30.781C285.501 30.5479 285.722 30.3556 285.995 30.2288C289.229 28.282 292.769 26.7193 296.515 25.5855C297.278 25.4073 297.965 25.0519 298.496 24.5605C299.027 24.0691 299.381 23.4618 299.516 22.809C299.733 22.0395 299.877 21.2569 299.947 20.4684C300.049 19.1512 299.731 18.9807 298.271 19.3692C294.455 20.4543 290.861 22.0236 287.615 24.022L284.908 25.6424C284.908 21.2076 284.84 16.9717 285.203 12.7454C285.226 12.5436 285.311 12.3503 285.45 12.1843C285.589 12.0182 285.777 11.8851 285.995 11.7977C290.161 9.43338 294.827 7.75461 299.743 6.8512C300.675 6.67318 301.541 6.30608 302.263 5.78225C302.986 5.25842 303.544 4.59392 303.887 3.84727C304.041 3.63201 304.107 3.38119 304.076 3.13199C304.045 2.88279 303.92 2.64847 303.718 2.46375C303.514 2.3084 303.256 2.21314 302.982 2.1926C302.708 2.17206 302.433 2.22737 302.2 2.35004C300.637 2.85228 299.086 3.36399 297.557 3.93255C289.291 6.88572 281.858 11.2567 275.736 16.7632C275.124 17.3223 273.935 18.1941 274.524 18.6585C275.396 19.3787 276.46 18.4689 277.31 17.9099C277.416 17.8415 277.514 17.7654 277.604 17.6824L279.529 15.8535L279.869 16.0904C279.552 20.4589 279.382 24.8369 279.416 29.2149C279.392 29.7082 279.159 30.1784 278.759 30.5415C277.569 31.8454 276.946 33.4499 276.993 35.0901C276.993 35.4312 276.8 35.924 277.298 36.1135C277.797 36.303 278.068 35.8292 278.431 35.6113C278.793 35.3933 278.952 34.9953 279.563 34.9385C279.948 39.1364 280.367 43.3154 281.194 47.447C281.624 49.6644 282.587 51.6828 285.259 52.7346H287.705C289.473 52.4291 291.176 51.902 292.756 51.1711C297.562 49.0733 302.18 46.6853 306.571 44.0261C308.019 43.1042 309.531 42.2561 311.101 41.4865C310.795 42.9458 311.101 44.3862 310.806 45.7792C310.421 47.7881 311.09 49.7591 310.976 51.7586C310.978 51.9495 311.028 52.1379 311.124 52.3112C311.219 52.4844 311.358 52.6385 311.531 52.7631H312.075C314.702 51.3417 315.54 49.2759 315.404 46.7552C315.299 43.3967 315.489 40.0364 315.97 36.701C316.723 31.0765 317.857 25.4924 319.367 19.9757C319.934 17.8056 320.5 15.6451 321.1 13.1528C323.422 18.8385 325.63 24.2115 327.793 29.5655C330.669 36.5684 333.591 43.5523 336.456 50.5551C336.886 51.607 337.588 52.3367 338.958 52.2419C339.561 52.209 340.128 51.9885 340.547 51.6238C340.966 51.2592 341.207 50.7766 341.223 50.2709C341.382 49.3706 341.597 48.4799 341.665 47.5796C342.084 41.3538 341.902 35.109 342.491 28.8927C342.85 24.2529 343.753 19.6538 345.186 15.1618C345.186 15.6451 345.186 16.1094 345.186 16.6116C345.186 17.1139 345.243 18.0994 346.319 18.0994C346.777 18.066 347.217 17.9356 347.598 17.7203C349.747 16.7018 351.959 15.7782 354.223 14.9533C357.588 13.7242 361.054 12.7012 364.596 11.8925C362.202 19.1198 360.312 26.4572 358.934 33.8677C357.705 39.7568 357.378 45.7529 357.96 51.7112C357.96 52.1282 358.119 53.0947 359.342 53.0947H359.715L359.942 53.0189L360.372 52.7726L361.289 52.2229C363.101 51.0763 365.117 49.3801 364.517 46.3856C364.032 43.3523 364.063 40.2768 364.607 37.2506C365.918 28.4342 367.992 19.7091 370.813 11.1439C370.96 10.708 371.164 10.5658 371.753 10.4616C376.196 9.68835 380.693 9.14717 385.217 8.84119C387.414 8.69905 390.143 8.52848 390.879 5.68564V2.36899L390.857 2.22685Z" fill="#008A3A"/>
<path d="M99.9744 54.0137C99.4422 54.0137 97.7096 53.8526 97.6416 51.7773C97.6416 51.7773 97.551 50.6686 97.5057 50.1664C97.3023 48.3491 97.2304 46.5232 97.2906 44.6986C97.6643 31.9911 99.5554 21.7664 103.1 12.5271C104.255 9.39291 105.952 6.41733 108.139 3.69539C108.877 2.81306 109.86 2.09429 111.004 1.60117C111.568 1.32265 112.207 1.16934 112.861 1.15579C113.502 1.1533 114.126 1.33379 114.628 1.6675C115.139 2.03037 115.493 2.5237 115.636 3.0716C115.78 3.61949 115.704 4.19158 115.42 4.69986C115.137 5.39162 114.866 6.08338 114.594 6.76566C113.926 8.46189 113.235 10.2055 112.454 11.9302C110.406 16.9024 109.034 22.0521 108.366 27.2815C108.162 28.5418 107.935 29.8021 107.697 31.0719C107.031 34.2747 106.563 37.504 106.293 40.7471C106.191 42.5665 106.293 44.4049 106.395 46.1864L106.474 47.3804C106.599 49.7494 103.44 53.3409 100.733 53.9C100.487 53.9654 100.232 54.0036 99.9744 54.0137Z" fill="#008A3A"/>
<path d="M99.9743 53.5307C99.3401 53.5307 98.2643 53.2938 98.2077 51.7491V51.607C98.2077 51.1237 98.1285 50.6594 98.0832 50.1287C97.8801 48.3304 97.8083 46.5235 97.868 44.7178C98.2417 32.0483 100.133 21.8614 103.643 12.6696C104.784 9.5794 106.459 6.64549 108.615 3.96099C109.289 3.16395 110.182 2.51401 111.219 2.06577C111.705 1.82758 112.253 1.69407 112.816 1.67725C113.332 1.67929 113.833 1.82237 114.243 2.08472C114.66 2.38898 114.945 2.80104 115.052 3.2558C115.158 3.71057 115.081 4.1821 114.832 4.5959C114.56 5.28765 114.277 5.97941 114.005 6.67117C113.337 8.35792 112.646 10.1015 111.876 11.8072C109.818 16.8138 108.439 21.9983 107.765 27.2628C107.561 28.5231 107.324 29.7835 107.097 31.0533C106.442 34.2628 105.984 37.4984 105.727 40.7473C105.625 42.5762 105.727 44.4336 105.829 46.2246L105.897 47.3806C106.01 49.5317 103.032 52.9147 100.586 53.4169C100.389 53.4768 100.183 53.515 99.9743 53.5307Z" fill="#008A3A"/>
<path d="M113.461 6.47217C113.733 5.78041 114.005 5.08865 114.288 4.3969C114.498 4.07698 114.572 3.70676 114.498 3.34692C114.424 2.98708 114.206 2.65898 113.88 2.41638C113.56 2.20105 113.158 2.08997 112.748 2.10367C112.28 2.12165 111.825 2.23555 111.423 2.43534C110.481 2.86639 109.677 3.48067 109.079 4.22633C106.958 6.87139 105.317 9.76453 104.209 12.8117C100.654 21.9656 98.8304 32.1146 98.4568 44.7368C98.3972 46.5235 98.4691 48.3115 98.6719 50.0908C98.6719 50.5931 98.7512 51.0384 98.7965 51.588V51.7397C98.7965 52.0998 98.7965 53.0568 99.9968 53.0568C100.158 53.0552 100.318 53.0361 100.472 53C102.681 52.5451 105.455 49.3801 105.353 47.447L105.285 46.2246C105.183 44.4146 105.081 42.5383 105.183 40.7C105.432 37.4221 105.889 34.1577 106.553 30.9206C106.78 29.6603 107.006 28.4094 107.21 27.1301C107.886 21.8364 109.273 16.6232 111.344 11.5893C112.136 9.90253 112.793 8.15892 113.461 6.47217Z" fill="#008A3A"/>
<path d="M1.78275 53.787C1.54776 53.7921 1.31399 53.757 1.09585 53.6836C0.877724 53.6103 0.679857 53.5003 0.514455 53.3605C0.311647 53.1539 0.163409 52.9136 0.0794849 52.6555C-0.00443938 52.3975 -0.0221497 52.1275 0.0275179 51.8633C0.0275179 51.797 0.0275179 51.7212 0.0275179 51.6454V51.3706C0.0912555 51.2563 0.124288 51.1318 0.124288 51.0057C0.124288 50.8797 0.0912555 50.7551 0.0275179 50.6409V50.3756V49.3711V49.1247C0.439347 48.1029 0.746211 47.0536 0.944771 45.9881C1.08066 45.3437 1.22787 44.6709 1.42038 44.0171C2.8359 39.279 4.61378 34.2756 7.19568 27.9076C7.37146 27.4917 7.42582 27.0465 7.35422 26.6094C7.29241 25.856 7.41744 25.1001 7.72145 24.3891C8.02545 23.6781 8.50187 23.0274 9.12078 22.4778C9.60482 21.9964 9.97734 21.4436 10.2192 20.8479L11.2497 18.4031C12.8691 14.5084 14.545 10.4905 16.0058 6.49158C16.9571 3.92355 19.4031 2.70113 21.883 1.75352C22.1657 1.63889 22.4749 1.57743 22.789 1.57347C23.02 1.56887 23.249 1.61132 23.4561 1.69716C23.6632 1.78299 23.8423 1.90965 23.978 2.06623C24.1412 2.27838 24.2382 2.52145 24.2599 2.77311C24.2817 3.02478 24.2276 3.27699 24.1026 3.5066C23.8874 4.03726 23.6949 4.5774 23.5024 5.11754L23.1627 6.06516C25.4368 5.52903 27.787 5.25173 30.1496 5.24073H30.2742C32.3485 5.24909 34.4069 5.54365 36.3666 6.11254C38.8919 6.8422 39.8884 7.70453 40.0922 9.57133C41.5757 8.62371 43.4894 7.53396 45.5844 6.51054C49.4743 4.58775 53.5547 2.94865 57.7805 1.61137L57.973 1.54504C58.4156 1.37742 58.8919 1.28098 59.3772 1.26076C59.7031 1.25964 60.0249 1.32148 60.3175 1.44146C60.6102 1.56145 60.8658 1.73634 61.0645 1.95251C61.4521 2.36911 61.6569 2.88453 61.6446 3.41244C61.6322 3.94034 61.4034 4.44866 60.9965 4.85221C60.4783 5.62498 59.7669 6.29508 58.9109 6.81677C58.0549 7.33846 57.0745 7.69945 56.0366 7.8751C51.3523 8.71529 46.9142 10.3258 42.9799 12.6132L42.7307 12.7648C42.4703 16.252 42.3684 19.8814 42.4363 23.8045C44.1791 22.7405 45.9899 21.7566 47.8605 20.8574C49.973 19.8411 52.2138 19.0243 54.5418 18.422C54.9071 18.3174 55.2884 18.2568 55.6742 18.242C55.902 18.2377 56.1285 18.2715 56.3405 18.3415C56.5525 18.4114 56.7456 18.5161 56.9085 18.6495C57.1287 18.879 57.2914 19.1433 57.3867 19.4266C57.482 19.7099 57.5081 20.0064 57.4634 20.2983C57.4419 21.5506 57.1662 22.7907 56.6481 23.9656C56.4105 24.547 56.01 25.0724 55.48 25.4978C54.9501 25.9232 54.306 26.2361 53.6019 26.4104C49.91 27.5456 46.4084 29.0744 43.1837 30.959C43.0182 31.0193 42.8834 31.1264 42.8026 31.2615C42.7219 31.3966 42.7005 31.5511 42.7421 31.6981C42.9923 35.2819 43.4876 38.8508 44.2255 42.3872L44.3388 42.9178C44.4848 43.8998 44.8054 44.858 45.29 45.7607C45.6863 46.3861 46.026 46.3861 46.2412 46.3861C46.3915 46.4029 46.5438 46.4029 46.6942 46.3861C47.3658 46.2736 48.0069 46.0583 48.5853 45.7512C53.963 42.9688 59.0777 39.8451 63.8842 36.4077C65.1303 35.4616 66.5484 34.6875 68.0854 34.1145H68.1986C68.2023 34.0767 68.2023 34.0386 68.1986 34.0008C67.2633 29.1468 66.711 24.2465 66.5453 19.3317C66.4547 15.5413 66.3528 11.6276 67.5079 7.70453C67.8519 6.544 68.497 5.46105 69.3972 4.53249C70.2974 3.60393 71.4308 2.85252 72.717 2.33156L72.8076 2.28418C73.1414 2.09132 73.5345 1.98278 73.94 1.97147C74.1479 1.9654 74.3551 1.99412 74.5496 2.05596C74.744 2.11779 74.9218 2.21149 75.0724 2.33156C75.3252 2.54112 75.4987 2.80834 75.5712 3.09988C75.6437 3.39142 75.612 3.69437 75.48 3.97093C73.6002 10.102 74.3476 16.3941 75.0837 22.4778L75.1969 23.4254C75.8537 28.8647 76.771 34.1429 77.9261 39.1274C78.1299 38.5683 78.2884 38.0187 78.447 37.488C81.1999 27.9565 85.2938 18.7319 90.643 10.0072L90.9714 9.46709C91.8623 7.83643 92.9514 6.28682 94.2214 4.84274C95.0074 3.94993 96.0517 3.23905 97.2563 2.77694C97.7322 2.59172 98.249 2.49167 98.7737 2.48318C99.406 2.47691 100.019 2.66584 100.495 3.01384C100.941 3.3516 101.241 3.80426 101.345 4.30023C101.45 4.79621 101.354 5.30721 101.073 5.75244C100.268 7.5696 99.2953 9.33123 98.1622 11.0212C92.7153 19.1138 89.103 27.7466 86.3399 35.1285C84.596 39.7339 83.1125 44.3393 81.9121 48.831C81.2893 51.1621 79.2283 52.4508 77.1673 53.569L77.0201 53.6259L76.7144 53.7017H76.5558H75.7405H75.4914C74.898 53.5364 74.3604 53.255 73.9231 52.8809C73.4859 52.5067 73.1617 52.0507 72.9774 51.5506L72.8642 51.3516C71.5703 48.86 70.6058 46.2576 69.9879 43.5906C69.8406 43.0316 69.7048 42.5293 69.5689 42.0366L69.365 41.2311C64.173 44.7584 58.6476 47.9275 52.8432 50.7072C50.2457 52.1491 47.3562 53.1831 44.3161 53.7585H41.6663C40.7871 53.6737 39.9495 53.3983 39.2365 52.9595C38.5235 52.5207 37.9597 51.9338 37.6009 51.2568L37.3971 50.8967C37.0177 50.4067 36.7562 49.8596 36.627 49.2858C36.3553 47.8265 35.1775 46.7462 33.7734 45.5806C31.1462 43.4106 28.6209 41.1174 26.1749 38.9473C23.0764 36.138 19.5994 33.6386 15.8133 31.4991C15.4736 31.3096 15.1226 31.139 14.7602 30.9684L13.8429 30.5136L13.356 31.8876C11.9635 35.5305 10.8291 39.2389 9.95876 42.9937C9.80022 43.7802 9.65301 44.5762 9.51712 45.3627C9.38123 46.1492 9.20004 47.0684 9.03018 47.9212C8.29412 51.4653 6.65212 52.9341 2.49617 53.7396C2.26165 53.7802 2.02199 53.7961 1.78275 53.787ZM21.3168 24.5247C21.3168 24.5247 21.4074 24.6289 21.6679 24.8374C23.208 26.0882 24.7254 27.358 26.1975 28.6278L29.8212 31.6223C30.6366 32.3046 31.4859 32.9489 32.3805 33.6502L32.8788 34.0292C33.117 32.6784 33.7685 31.4021 34.7699 30.3241C35.1596 29.9505 35.3588 29.464 35.3248 28.969C35.3248 27.9203 35.3248 26.8684 35.3248 25.8134C35.3248 24.6384 35.3248 23.4633 35.3248 22.2883C35.3248 21.407 35.404 20.5352 35.4833 19.7013C35.5626 18.8674 35.6305 17.9672 35.6192 17.0954C35.4844 17.2225 35.3407 17.3427 35.1889 17.4555C34.985 17.5976 34.8039 17.7587 34.6113 17.9103C34.1159 18.376 33.5254 18.7643 32.8674 19.0569C30.2684 20.0964 27.7393 21.2542 25.2916 22.5252C24.0459 23.1506 22.8909 23.7287 21.7132 24.2783C21.5623 24.3368 21.4273 24.4206 21.3168 24.5247ZM29.708 11.7035C26.5502 11.7997 23.4123 12.1649 20.343 12.7932C19.9806 12.8595 19.9013 12.9069 19.8447 13.0585C19.12 14.8306 18.3839 16.6026 17.5799 18.4789L17.1269 19.5876C20.1844 18.5547 23.7062 17.3133 27.2054 15.8824C28.8985 15.2475 30.5078 14.4662 32.0068 13.5513C32.5051 13.2196 32.5843 13.0396 32.5956 12.9638C32.607 12.888 32.4145 12.6226 32.0634 12.3478C31.3974 11.8879 30.5471 11.6575 29.6854 11.7035H29.708Z" fill="#008A3A"/>
<path d="M1.78254 53.3126C1.62652 53.3235 1.46949 53.3073 1.32136 53.2649C1.17323 53.2225 1.03721 53.1548 0.921906 53.0662C0.777738 52.9054 0.675103 52.7213 0.620518 52.5255C0.565933 52.3298 0.560591 52.1266 0.604831 51.929C0.604831 51.8438 0.604831 51.7585 0.604831 51.6827V51.5026C0.689151 51.3446 0.732731 51.1735 0.732731 51.0004C0.732731 50.8273 0.689151 50.6562 0.604831 50.4982V50.3181V49.3705V49.2094C1.02451 48.1895 1.33155 47.1396 1.52208 46.0728C1.65797 45.4189 1.80519 44.7746 1.9977 44.1776C3.40189 39.4395 5.17977 34.4551 7.75034 28.0681C7.96783 27.5782 8.03783 27.051 7.95418 26.533C7.89871 25.8405 8.01604 25.1458 8.29873 24.4933C8.58141 23.8407 9.02325 23.2445 9.59617 22.7426C10.0961 22.2232 10.4797 21.6325 10.7286 20.9989L11.7478 18.5541C13.3671 14.6594 15.0544 10.6415 16.5152 6.63313C17.3985 4.23566 19.7086 3.07958 22.0753 2.18882C22.2896 2.10863 22.5202 2.0636 22.7548 2.05615C22.8965 2.0528 23.0372 2.07769 23.1651 2.12877C23.2931 2.17984 23.4048 2.25564 23.4909 2.34991C23.589 2.50627 23.6404 2.68025 23.6404 2.85689C23.6404 3.03352 23.589 3.2075 23.4909 3.36386C23.2757 3.904 23.0719 4.44414 22.8794 4.99375C22.6868 5.54337 22.4717 6.14984 22.2452 6.71841V6.78474H22.3245C24.8421 6.11927 27.464 5.77116 30.1041 5.75185H30.2287C32.2512 5.77004 34.2561 6.06781 36.1625 6.63313C38.8124 7.40069 39.5598 8.25355 39.5598 10.5562C41.5825 9.27715 43.6841 8.08783 45.856 6.99322C49.7355 5.05947 53.8041 3.40469 58.0181 2.04668L58.2106 1.98982C58.5873 1.8407 58.9949 1.75383 59.4109 1.73396C59.6519 1.73175 59.8902 1.77689 60.1065 1.86577C60.3229 1.95464 60.5113 2.08477 60.6566 2.24568C60.9583 2.58978 61.1124 3.00903 61.0939 3.43554C61.0754 3.86205 60.8854 4.27086 60.5547 4.59576C60.0811 5.32067 59.4245 5.95052 58.6305 6.44148C57.8365 6.93244 56.9242 7.27271 55.9571 7.4386C51.1972 8.30668 46.6901 9.95572 42.6965 12.2904C42.3342 12.4894 42.2436 12.5747 42.2209 12.7926C41.9152 16.5831 41.8246 20.5062 41.9265 24.7989C43.9212 23.5419 46.0049 22.3868 48.1661 21.3401C50.2466 20.3491 52.4486 19.5485 54.7341 18.9521C55.0622 18.8559 55.4058 18.8016 55.7532 18.791C55.9053 18.7865 56.0568 18.8077 56.1988 18.8533C56.3409 18.8988 56.4705 18.9679 56.5799 19.0563C56.7479 19.2425 56.8696 19.455 56.9376 19.6813C57.0057 19.9076 57.0188 20.1429 56.9762 20.3735C56.9357 21.5594 56.6602 22.7314 56.1609 23.8418C55.9515 24.3553 55.5972 24.8189 55.128 25.1934C54.6588 25.5679 54.0886 25.8421 53.4658 25.9929C49.7246 27.1356 46.1768 28.6805 42.9117 30.5888C42.6645 30.6974 42.4646 30.8686 42.3405 31.0779C42.2165 31.2872 42.1746 31.5239 42.2209 31.7544C42.4742 35.3572 42.9733 38.9451 43.7157 42.5003L43.8289 43.031C43.9818 44.0661 44.3216 45.0757 44.8368 46.0254C45.3237 46.8025 45.8446 46.9067 46.2863 46.9067C46.4806 46.9044 46.6741 46.8853 46.8638 46.8498C47.5976 46.7224 48.299 46.4883 48.9361 46.1581C54.3368 43.3599 59.474 40.2205 64.3029 36.7672C65.4902 35.8694 66.8392 35.1339 68.3003 34.5877C68.776 34.4266 68.8213 34.3603 68.742 33.9244C67.8063 29.0927 67.254 24.2144 67.0887 19.3217C66.7957 15.4691 67.1117 11.601 68.0286 7.81764C68.3525 6.71752 68.9617 5.6905 69.813 4.80945C70.6643 3.92839 71.7368 3.21486 72.9546 2.71948L73.0791 2.66263C73.3174 2.51734 73.6002 2.43187 73.8945 2.41625C74.1522 2.41926 74.3991 2.50392 74.5852 2.65315C74.7537 2.80226 74.8668 2.98902 74.911 3.19084C74.9553 3.39266 74.9286 3.60088 74.8344 3.79029C72.9206 10.0066 73.7019 16.3462 74.4267 22.4677L74.5399 23.4154C75.242 29.2716 76.2499 34.9478 77.5408 40.2734V40.4345C77.5408 40.5577 77.5408 40.6809 77.6314 40.7946C78.1688 39.7484 78.5785 38.6594 78.8544 37.5443C81.6173 28.0639 85.7111 18.8904 91.0505 10.2151L91.3676 9.67496C92.2497 8.07518 93.3234 6.55437 94.5723 5.1359C95.3004 4.31442 96.267 3.66208 97.3807 3.24067C97.7856 3.08253 98.2249 2.99545 98.6716 2.98481C99.1703 2.98001 99.6537 3.12836 100.03 3.40176C100.369 3.6862 100.591 4.0533 100.664 4.45012C100.738 4.84695 100.658 5.253 100.438 5.6097C99.6431 7.40706 98.6814 9.14966 97.5618 10.8216C92.0923 18.9426 88.5026 27.6133 85.6942 35.0141C83.9503 39.629 82.4555 44.2534 81.2551 48.7545C80.6776 50.9151 78.7185 52.1375 76.7255 53.2083L76.4197 53.2841H75.6044H75.4345C74.9335 53.1278 74.4836 52.8746 74.1215 52.5453C73.7595 52.216 73.4954 51.8197 73.3509 51.3889L73.2377 51.1899C71.9993 48.7181 71.0843 46.1414 70.5086 43.5048C70.3727 42.9836 70.2254 42.4719 70.0896 41.9507C69.999 41.6285 69.9197 41.2968 69.8517 41.0031C69.7838 40.7093 69.7612 40.6051 69.7045 40.4061C64.3366 44.0838 58.6006 47.3683 52.5598 50.2233C50.0101 51.6437 47.1753 52.6677 44.1913 53.2462H41.666C40.8923 53.16 40.1584 52.9079 39.5354 52.5144C38.9124 52.1209 38.4215 51.5994 38.1103 51.0004L37.8725 50.6308C37.5397 50.1932 37.3056 49.7082 37.1817 49.1999C36.8873 47.5985 35.6416 46.4518 34.1695 45.2389C31.5536 43.0689 29.0283 40.7851 26.5937 38.6056C23.4607 35.777 19.9498 33.2588 16.1302 31.1005C15.7791 30.892 15.4054 30.7215 14.9978 30.5414C14.5901 30.3614 14.341 30.2287 14.0126 30.0487C13.874 29.9494 13.7056 29.8838 13.5256 29.8591C13.5256 29.8591 13.4237 29.9349 13.3105 30.2382L12.7782 31.7449C11.3831 35.4064 10.2487 39.1339 9.38101 42.9078C9.22248 43.6943 9.07526 44.4903 8.92805 45.2863C8.78084 46.0823 8.6223 46.9825 8.45244 47.8259C7.79564 51.171 6.31218 52.4787 2.39404 53.2462C2.19319 53.2846 1.98843 53.3068 1.78254 53.3126ZM35.4604 35.8386C35.3635 35.9001 35.2826 35.9775 35.2226 36.066C35.3153 36.132 35.4137 36.1922 35.5171 36.246L35.4604 35.8386ZM35.9587 16.2419C35.6739 16.3956 35.4181 16.584 35.2 16.801C35.0641 16.9242 34.9508 17.0284 34.8263 17.1232C34.7017 17.218 34.4186 17.4359 34.2261 17.597C33.7729 18.0128 33.2364 18.3591 32.6407 18.6204C30.0166 19.6653 27.4646 20.8327 24.997 22.1171C23.8079 22.7426 22.6755 23.3111 21.4299 23.8702C20.9882 24.0787 20.7844 24.2587 20.7504 24.4483C20.7164 24.6378 20.875 24.8557 21.2713 25.1779C22.8114 26.4288 24.3288 27.6891 25.801 28.9684L29.47 31.9534C30.2966 32.6356 31.146 33.2895 32.0406 33.9813L33.071 34.7772L33.3655 34.692C33.5216 33.2118 34.1601 31.7958 35.2113 30.5983C35.6759 30.1352 35.9181 29.5441 35.8908 28.9399C35.8908 27.8913 35.8908 26.8394 35.8908 25.7844C35.8908 24.6094 35.8908 23.4343 35.8908 22.2593C35.8908 21.3969 35.97 20.5346 36.038 19.7007C36.1631 18.5985 36.2084 17.4909 36.1739 16.3841L35.9587 16.2419ZM16.5379 20.3072C19.8445 19.189 23.6947 17.8529 27.4769 16.3083C29.2075 15.6593 30.8511 14.8589 32.3803 13.9203C32.5843 13.8164 32.7608 13.6788 32.899 13.5158C33.0373 13.3529 33.1344 13.1681 33.1843 12.9727C33.1456 12.7821 33.0616 12.6 32.9371 12.4372C32.8125 12.2744 32.6502 12.1342 32.4595 12.025C31.6957 11.4806 30.7092 11.2054 29.7078 11.2575C26.5132 11.3385 23.3371 11.6942 20.2295 12.3188C20.0238 12.3275 19.8258 12.3871 19.6605 12.49C19.4952 12.5929 19.3701 12.7345 19.3009 12.8969C18.5762 14.6689 17.8401 16.4409 17.0361 18.3362L16.3 20.1177L16.5379 20.3072Z" fill="#008A3A"/>
<path d="M99.6801 3.73378C99.3868 3.55142 99.0356 3.44598 98.6707 3.4308C98.3058 3.41562 97.9438 3.49138 97.6304 3.64849C96.6031 4.05363 95.7121 4.66576 95.0372 5.43C93.7066 6.99798 92.5684 8.67426 91.6399 10.4334C86.3356 19.0814 82.2686 28.2226 79.5231 37.6678C79.182 39.1183 78.5908 40.5196 77.7679 41.8278C77.3499 41.4232 77.0927 40.9199 77.0318 40.3875C75.6742 34.7988 74.6538 29.1566 73.9743 23.482C73.1816 16.9056 72.2531 10.3102 74.2688 3.7622C74.348 3.50635 74.4726 3.20311 74.2688 3.00411C74.0649 2.80511 73.5667 3.00411 73.2836 3.13678C72.1446 3.59657 71.1391 4.2587 70.3372 5.077C69.5353 5.89531 68.9564 6.85011 68.6407 7.87485C67.7384 11.615 67.4262 15.4381 67.7121 19.2462C67.873 24.12 68.4215 28.9793 69.3541 33.7921C69.4061 33.9113 69.427 34.0384 69.4155 34.1649C69.404 34.2914 69.3604 34.4144 69.2874 34.5257C69.2145 34.637 69.1141 34.7339 68.9928 34.81C68.8715 34.8861 68.7321 34.9397 68.5841 34.9671C67.1749 35.4922 65.8751 36.2024 64.7339 37.0708C59.8809 40.5539 54.7172 43.7219 49.2878 46.547C48.5937 46.9119 47.8264 47.1687 47.023 47.305C46.5014 47.4416 45.9372 47.4069 45.4451 47.208C44.9529 47.0091 44.5697 46.661 44.3731 46.2342C43.7825 45.0683 43.4009 43.8357 43.2407 42.5765C42.4944 39.0023 41.9915 35.3956 41.7346 31.7737C41.6823 31.4613 41.744 31.1431 41.9118 30.8606C42.0795 30.5782 42.3454 30.3448 42.6745 30.1911C45.949 28.2648 49.5031 26.695 53.2512 25.5194C53.7985 25.3877 54.2991 25.1463 54.7095 24.816C55.12 24.4857 55.4279 24.0766 55.6066 23.6242C56.0837 22.5618 56.3514 21.4417 56.3993 20.3075C56.3993 19.2083 56.1275 19.0283 54.8819 19.3599C52.6318 19.9383 50.4666 20.7266 48.4271 21.71C45.9752 22.9091 43.6152 24.2352 41.3609 25.6805C41.225 21.2362 41.293 16.9719 41.6327 12.7172C41.6513 12.5301 41.7293 12.3506 41.8587 12.1973C41.9882 12.044 42.1643 11.9225 42.3687 11.8453C46.4361 9.49282 51.0138 7.82854 55.8444 6.94619C56.7246 6.78726 57.5544 6.47359 58.2787 6.02595C59.003 5.57831 59.6053 5.00694 60.0457 4.34972C60.3044 4.10502 60.4583 3.7951 60.4829 3.46901C60.5075 3.14291 60.4015 2.81926 60.1816 2.54926C59.604 1.94279 58.8566 2.28393 58.1885 2.4924C54.0115 3.82474 49.977 5.45098 46.1283 7.35366C43.6601 8.61289 41.2748 9.9826 38.9828 11.4568V10.6229C38.9828 8.43394 38.4393 7.78009 35.9706 7.03147C34.1485 6.50491 32.2362 6.22967 30.3086 6.21652C27.684 6.22474 25.0761 6.56662 22.5742 7.23047C21.6343 7.4579 21.5324 7.23047 21.8155 6.56714C22.2685 5.46791 22.6195 4.33077 23.0725 3.22206C23.3442 2.54926 22.9706 2.40712 22.3817 2.63454C20.0603 3.50635 17.92 4.60558 17.1273 6.78509C15.3494 11.6179 13.3111 16.3844 11.3294 21.1699C11.0663 21.856 10.6599 22.4977 10.129 23.0651C9.60867 23.5158 9.20448 24.0512 8.94151 24.638C8.67855 25.2248 8.5624 25.8506 8.60026 26.4765C8.69935 27.0599 8.62944 27.6546 8.39642 28.2106C6.19955 33.4794 4.19518 38.8523 2.58716 44.2443C2.23785 45.976 1.76133 47.6881 1.16032 49.3708V50.3185C1.36326 50.7444 1.36326 51.2192 1.16032 51.6451C1.16032 52.2611 0.922514 53.0665 2.29273 52.7822C6.00704 52.0526 7.29799 50.887 7.95478 47.722C8.29451 46.0826 8.55496 44.4338 8.88336 42.7944C9.9021 38.4952 11.2179 34.2491 12.8242 30.0774C13.1186 29.2435 13.5715 29.1867 14.3869 29.6226C15.2022 30.0585 15.8024 30.2954 16.4705 30.6744C20.3226 32.8562 23.8637 35.3997 27.0246 38.2553C29.5046 40.5012 31.9845 42.7565 34.5891 44.8886C36.0046 46.0921 37.3975 47.3809 37.7372 49.1434C37.9257 49.727 38.2198 50.283 38.6091 50.7923C38.8727 51.3151 39.2923 51.7727 39.8276 52.1211C40.3629 52.4695 40.9961 52.6972 41.6667 52.7822H44.1127C47.0234 52.2176 49.789 51.2193 52.2773 49.8352C58.5744 46.8382 64.5328 43.3683 70.0788 39.4683C70.328 40.2548 70.4639 41.0413 70.679 41.8089C71.5283 44.8981 72.1851 48.0442 73.7931 50.9534C74.2008 51.702 74.5405 52.5074 75.639 52.7822H76.4543C78.3568 51.7399 80.1686 50.6217 80.7122 48.6222C81.9465 43.9789 83.4413 39.383 85.1512 34.8439C88.322 26.4765 91.9457 18.2417 97.0642 10.5566C98.1734 8.91057 99.1239 7.1931 99.9065 5.42053C100.098 5.15826 100.18 4.8501 100.139 4.54467C100.098 4.23924 99.9363 3.95394 99.6801 3.73378ZM16.4139 20.8477L15.6665 20.2507L16.5271 18.1849C17.3085 16.2897 18.0446 14.5176 18.792 12.7456C18.8936 12.5095 19.071 12.3015 19.3048 12.1443C19.5385 11.9872 19.8195 11.887 20.1169 11.8548C23.2644 11.213 26.482 10.8415 29.7197 10.7461C30.866 10.6986 31.9912 11.0169 32.8678 11.6369C33.1263 11.7943 33.3403 11.9972 33.4949 12.2313C33.6495 12.4654 33.7408 12.7251 33.7624 12.992C33.7131 13.2555 33.5978 13.5074 33.4241 13.7311C33.2505 13.9548 33.0223 14.1453 32.7546 14.2902C31.1936 15.2476 29.5158 16.0639 27.7493 16.7256C23.8085 18.3365 19.8111 19.72 16.4139 20.8477ZM35.9253 34.9482C36.0159 35.7063 36.1065 36.417 36.2084 37.1845C34.2041 36.1137 34.1927 36.0095 35.9253 34.9482ZM36.6614 19.739C36.5935 20.6108 36.5142 21.4257 36.5142 22.2596C36.5142 23.4347 36.5142 24.6192 36.5142 25.7942C36.5142 26.9693 36.5142 27.8979 36.5142 28.9403C36.5449 29.6536 36.2538 30.3504 35.6988 30.8924C34.6385 32.1128 34.007 33.557 33.8757 35.0619L32.9358 35.3462L31.6561 34.3985C30.7502 33.6973 29.9009 33.0435 29.0742 32.3612L25.5185 29.3762C24.0086 28.1127 22.4647 26.8492 20.8869 25.5857C20.6705 25.4564 20.4939 25.2858 20.3718 25.0881C20.2497 24.8904 20.1856 24.6712 20.1848 24.4486C20.2485 24.2384 20.3697 24.0434 20.5386 23.879C20.7076 23.7146 20.9199 23.5852 21.1587 23.501C22.3477 22.9419 23.5254 22.3544 24.7031 21.7669C27.1883 20.471 29.7592 19.2941 32.4035 18.2417C32.9392 17.995 33.4215 17.6746 33.8304 17.2941C34.0342 17.1236 34.238 16.953 34.4532 16.8014C34.5739 16.7161 34.6839 16.6209 34.7816 16.5171C35.1092 16.18 35.5286 15.9136 36.0046 15.74L36.7746 16.157C36.8375 17.3517 36.7997 18.5487 36.6614 19.739Z" fill="#008A3A"/>
</svg>
