<svg width="392" height="145" viewBox="0 0 392 145" fill="none" xmlns="http://www.w3.org/2000/svg">
<path d="M297.205 105.917C292.863 107.345 289.67 107.779 286.833 105.049C285.396 103.669 285.299 102.946 287.267 101.991C292.593 99.3952 298.247 97.6874 303.833 95.8157C304.866 95.4683 306.419 96.0086 307.48 96.5972C309.873 97.9286 312.025 97.5137 314.234 96.356C315.335 95.7013 316.549 95.2594 317.814 95.0535C319.168 94.8887 320.543 95.0574 321.817 95.5451C323.092 96.0327 324.228 96.8245 325.127 97.8514C326.545 99.5978 324.307 101.18 323.39 102.676C318.423 110.878 313.932 119.36 309.941 128.079C308.397 131.437 306.67 131.456 303.968 130.096C301.267 128.735 299.424 127.684 301.595 124.017C304.711 118.769 307.056 113.057 309.989 107.027C306.969 107.413 305.879 109.063 304.904 110.886C301.962 116.366 298.749 121.731 296.124 127.365C294.311 131.225 292.159 129.874 289.554 128.755C286.37 127.385 286.216 125.59 287.866 122.773C290.992 117.572 293.77 112.179 297.205 105.917Z" fill="#13335A"/>
<path d="M375.287 89.5444C372.601 89.7415 369.984 90.4962 367.606 91.7603C365.227 93.0245 363.138 94.7703 361.471 96.8866C359.339 99.5495 356.464 100.08 353.675 101.093C352.093 101.662 350.935 100.785 349.98 99.5399C348.706 97.8804 349.98 96.6454 350.945 95.835C360.95 87.2192 372.566 82.9161 385.804 84.18C391.757 84.7492 393.686 89.554 390.425 94.6193C387.589 98.9996 383.314 101.952 379.156 104.943C373.097 109.323 366.42 112.941 362.233 119.502C361.298 120.827 359.882 121.735 358.287 122.03C356.058 122.58 353.463 122.908 351.948 121.065C350.327 119.087 352.585 117.36 353.617 115.691C356.898 110.336 362.185 107.172 367.038 103.534C370.598 100.871 374.207 98.247 377.651 95.4684C378.982 94.4071 380.651 93.1817 379.986 91.0977C379.243 88.8015 377.043 89.9399 375.287 89.5444Z" fill="#13335A"/>
<path d="M331.561 113.617C334.455 114.148 335.961 112.788 337.726 112.18C338.752 111.756 339.856 111.558 340.965 111.599C342.074 111.641 343.161 111.921 344.152 112.421C345.281 113.029 346.381 113.685 346.284 115.315C346.188 116.946 344.991 117.023 344.017 117.428C341.364 118.509 338.71 119.638 335.98 120.477C329.226 122.571 324.47 126.343 322.8 133.782C321.739 138.548 319.752 138.867 315.535 136.464C313.538 135.326 312.834 133.994 313.673 131.804C319.626 116.34 326.721 101.341 334.899 86.9304C336.829 83.5921 339.154 85.0007 341.45 86.091C343.747 87.1812 344.567 88.7732 342.994 91.3492C338.658 98.4903 334.837 105.932 331.561 113.617Z" fill="#13335A"/>
<path d="M354.698 128.273C356.136 128.379 358.316 127.79 358.413 130.443C358.558 134.158 354.795 136.975 349.922 136.927C348.282 136.927 346.285 137.516 346.304 134.592C346.343 130.376 349.015 128.215 354.698 128.273Z" fill="#13335A"/>
<path d="M289.216 89.9114C290.692 87.0169 288.801 82.9647 285.261 81.6622C281.72 80.3597 282.366 83.9006 281.527 85.2899C279.544 88.7544 277.768 92.3338 276.211 96.0091C275.361 97.9387 274.281 99.193 271.386 99.1544C272.66 96.3178 273.982 93.8382 274.889 91.2236C276.307 87.1713 273.152 85.4347 270.431 84.0164C267.305 82.3858 267.855 85.7723 267.228 87.1038C264.411 93.1725 261.825 99.357 259.008 105.435C258.68 106.149 259.278 108.108 257.213 107.461C252.968 106.12 249.582 108.899 244.738 110.24C247.633 104.683 249.987 99.8394 252.63 95.16C253.971 92.7962 255.525 90.828 252.013 89.0238C248.974 87.4608 246.388 86.9301 244.294 90.5578C240.091 97.7321 236.539 105.268 233.681 113.077C232.948 115.151 231.182 117.563 234.009 119.56C236.663 121.422 239.316 122.175 242.471 120.409C245.935 118.48 249.62 116.897 253.18 115.112C255.255 114.08 255.284 115.421 255.891 116.907C256.692 118.837 256.364 119.261 254.406 119.705C249.292 120.872 244.179 122.136 239.21 123.786C237.656 124.298 234.501 123.95 234.839 126.459C235.148 128.755 238.013 129.353 240.107 130.038C241.767 130.607 243.175 129.401 244.719 129.073C246.263 128.745 247.7 127.317 249.543 128.919C244.564 131.939 239.711 134.939 234.791 137.834C233.315 138.702 231.472 139.831 233.083 141.346C235.013 143.179 237.444 145.427 240.686 143.671C253.171 136.917 266.649 134.303 280.687 133.907C281.845 133.907 283.582 134.525 283.804 132.682C283.939 131.534 282.704 130.858 281.71 130.289C280.154 129.455 278.396 129.074 276.635 129.189C273.741 129.257 270.75 129.189 266.35 129.189C271.309 126.613 275.033 124.876 278.487 122.783C279.973 121.895 282.279 120.072 279.327 118.528C276.375 116.984 277.397 115.305 278.208 113.231C281.449 105.271 285.338 97.5914 289.216 89.9114ZM264.285 117.312C265.414 114.225 265.25 110.655 270.518 109.777C268.463 112.922 269.515 117.341 264.285 117.312Z" fill="#13335A"/>
<path d="M58.1416 93.5196H58.2193C58.2246 93.4973 58.2246 93.474 58.2193 93.4517L58.1416 93.5196Z" fill="#13335A"/>
<path d="M104.52 118.807C101.346 117.842 101.279 116.144 102.543 113.549C106.72 104.981 110.531 96.2302 115.027 87.8363C116.957 84.1796 115.799 82.8193 112.799 81.3045C108.139 78.9407 107.01 82.7999 106.112 85.5014C103.266 94.1076 95.8178 93.7313 88.1765 95.6706C89.8938 93.1525 89.7009 90.6053 92.6725 90.6439C94.1197 90.6439 96.088 90.1615 96.3099 89.023C96.6765 87.0934 94.3802 86.804 93.0392 86.1286C91.6535 85.3331 90.0095 85.118 88.4659 85.5304C78.3449 88.0486 68.0889 90.0458 58.2188 93.5191C58.2188 94.1269 58.1127 95.0918 58.3732 95.2075C64.5963 98.0152 61.3931 102.096 59.8783 105.946C59.2994 107.432 58.6723 108.898 58.1899 110.403C57.5434 112.42 57.4277 114.735 58.8749 116.192C59.7557 117.037 60.8649 117.606 62.0653 117.827C63.2656 118.048 64.5045 117.912 65.6286 117.437C67.7115 116.618 69.7444 115.678 71.7167 114.62C73.0578 113.935 74.3988 113.288 75.7882 114.186C79.4256 116.549 82.648 115.285 85.996 113.404C87.694 112.439 89.3246 111.031 91.9971 111.098C85.6486 117.688 79.194 123.052 69.98 123.978C68.5231 124.123 65.812 124.133 65.7058 126.082C65.6093 127.683 67.6355 128.803 69.4204 129.391C69.8738 129.545 70.2984 129.951 70.7325 129.951C73.2507 129.951 73.8778 130.8 73.2411 133.492C72.6043 136.183 74.0997 138.316 76.56 139.801C82.2235 143.217 88.6396 142.58 94.2741 138.007C96.4353 136.261 98.1334 134.37 98.693 131.485C99.2526 128.6 97.4484 126.246 96.2616 123.766C99.0017 123.303 101.356 122.917 103.7 122.493C104.733 122.309 106.276 122.975 106.643 121.615C107.01 120.254 105.63 119.135 104.52 118.807ZM69.5362 107.789C71.2149 97.9187 73.5594 94.6479 79.1843 94.8409C76.7819 99.9351 77.5731 107.133 69.5362 107.789ZM82.1463 136.357C84.076 129.893 85.639 128.031 90.3087 126.4C90.1929 131.62 86.1986 133.482 82.1463 136.357ZM92.9427 103.553C90.7429 102.318 88.3501 103.978 85.6679 105.087C86.4977 101.296 86.4977 101.296 98.336 100.572C97.5738 103.495 96.8116 105.676 92.9427 103.505V103.553Z" fill="#13335A"/>
<path d="M58.2096 93.4331L58.1416 93.5205L58.2096 93.4331Z" fill="#13335A"/>
<path d="M56.9937 84.383C53.0765 82.4534 50.9153 83.1191 49.1786 87.1424C47.799 90.3359 46.0044 93.3654 44.4607 96.5108C42.2223 101.055 40.2927 106.255 33.9056 106.834C31.9759 106.998 30.6638 107.519 31.5514 104.663C32.7285 100.804 31.1655 97.8422 28.0298 95.5653C24.3346 92.8831 20.3113 91.2525 16.0082 93.7321C8.24139 98.2185 2.72265 104.731 0.503566 113.549C-1.02085 119.628 0.957008 123.883 5.87758 126.613C11.2999 129.614 15.5258 129.112 20.1376 124.761C21.7071 123.395 23.0546 121.794 24.132 120.014C26.4475 115.662 30.4805 115.402 34.9958 114.698C32.3715 120.651 30.0656 126.218 27.4702 131.649C25.5406 135.663 28.4351 136.609 31.0111 137.892C33.8573 139.31 35.9028 139.368 37.3114 135.692C39.7717 129.305 42.4925 122.985 45.5606 116.868C49.5356 108.976 52.4687 100.467 58.1032 93.5198C58.0776 92.9028 58.1726 92.2866 58.383 91.706C60.2065 88.8019 61.1038 86.4188 56.9937 84.383ZM9.99738 119.956C11.927 111.842 15.3425 106.284 20.8902 102.734C18.372 109.594 15.5837 115.132 9.99738 119.956Z" fill="#13335A"/>
<path d="M238.476 85.424C234.549 81.9506 231.905 82.3172 229.734 87.0448C225.402 96.4518 221.292 105.955 216.912 115.343C216.41 116.424 216.565 119.579 213.641 117.697C210.718 115.816 208.036 116.317 205.045 117.485C201.87 118.729 198.503 119.492 194.982 120.543C195.31 117.591 197.21 116.607 199.092 115.796C203.038 114.089 207.042 112.497 211.065 110.972C212.223 110.519 213.892 110.625 213.96 109.043C214.018 107.673 212.599 107.026 211.538 106.312C207.679 103.717 203.945 106.168 200.134 106.91C200.636 102.27 202.729 99.5489 207.312 98.8542C209.647 98.4973 211.885 97.5035 214.191 96.8667C214.967 96.6888 215.662 96.2573 216.165 95.6405C216.668 95.0237 216.951 94.2567 216.97 93.4609C216.97 91.4251 214.924 91.2418 213.468 90.8752C212.366 90.6672 211.23 90.7301 210.158 91.0585C202.591 92.9694 195.142 95.3244 187.852 98.1113C186.453 98.6613 184.571 98.642 184.378 100.842C184.185 103.042 185.893 103.688 187.273 104.035C190.293 104.778 189.839 106.534 189.058 108.599C187.07 113.809 185.266 119.096 183.066 124.219C181.677 127.461 182.921 128.928 185.729 130.114C186.803 130.614 187.977 130.865 189.162 130.846C190.346 130.828 191.511 130.541 192.57 130.008C199.169 126.979 205.846 124.113 212.927 122.531C213.796 124.258 212.783 125.338 212.31 126.39C210.631 130.249 213.612 130.983 215.976 132.179C218.34 133.375 220.376 133.52 221.572 130.298C226.775 116.401 232.678 102.777 239.257 89.4762C240.193 87.6816 239.865 86.6589 238.476 85.424Z" fill="#13335A"/>
<path d="M159.331 85.7721C156.736 84.4117 154.266 83.9582 152.578 87.3737C150.088 92.3714 147.358 97.2341 144.782 102.193C141.994 107.587 140.923 108.223 134.42 107.847C135.327 106.178 136.253 104.538 137.131 102.859C139.755 97.8034 138.588 95.8448 132.741 95.5361C131.626 95.4003 130.495 95.4656 129.403 95.729C123.98 97.5622 118.597 99.5304 113.203 101.45C110.598 102.415 110.859 103.718 112.769 105.107C114.902 106.66 117.121 107.596 119.919 106.583C121.453 106.024 122.929 104.654 124.897 105.397C121.626 112.739 118.298 119.936 115.249 127.23C113.618 131.09 116.638 131.939 119.34 133.222C122.504 134.737 123.199 133.048 123.98 130.607C126.151 124.153 128.361 117.621 137.488 117.254C135.819 121.2 134.391 125.05 132.587 128.716C130.782 132.382 133.059 133.54 135.664 134.785C138.443 136.126 139.968 135.933 141.328 132.479C146.809 118.523 153.29 104.98 160.721 91.9566C162.39 88.9753 162.1 87.2193 159.331 85.7721Z" fill="#13335A"/>
<path d="M171.084 85.2703C168.556 84.2186 166.655 85.0291 165.227 87.6534C157.76 101.367 150.987 115.405 144.908 129.768C143.355 133.424 144.117 135.315 147.59 136.83C151.45 138.509 152.415 136.319 153.669 133.347C159.255 119.84 165.17 106.438 172.579 93.7896C173.457 92.2942 174.113 90.6636 174.866 89.1006C174.837 86.5245 172.705 85.9071 171.084 85.2703Z" fill="#13335A"/>
<path d="M127.649 4.9268C125.208 3.89444 122.719 1.93589 120.799 5.76622C118.879 9.59655 116.94 13.0892 114.923 16.7265C113.891 18.6562 103.539 23.2101 101.58 22.5155C101.107 22.3514 100.741 21.6857 100.451 21.1647C95.4244 12.163 87.0594 10.4745 79.3023 18.2703C73.5134 24.0592 68.3902 30.0893 68.9691 38.9849C69.3068 44.137 72.6643 46.7517 77.006 48.7199C80.5662 50.3312 84.7245 49.8488 86.2876 47.2631C90.3012 40.7119 96.9006 41.7732 103.722 39.1296C101.377 44.5423 99.7564 48.527 97.9329 52.4152C96.1094 56.3034 99.3801 57.0077 101.609 58.1558C103.838 59.304 106.057 60.4232 107.485 56.9402C114.061 41.0188 121.534 25.4829 129.868 10.407C131.566 7.37746 130.206 6.0074 127.649 4.9268ZM78.3567 41.5899C80.0934 33.6495 83.1808 27.9956 89.4618 23.2101C87.4128 30.2 83.5866 36.5392 78.3567 41.6092V41.5899ZM98.3671 32.5206L98.0294 31.4207L108.035 28.343C105.333 31.469 101.744 31.6523 98.3671 32.5399V32.5206Z" fill="#13335A"/>
<path d="M175.59 24.4639C174.866 24.1684 174.083 24.043 173.303 24.0973C157.676 26.4886 142.284 30.2267 127.301 35.2699C123.953 36.4084 124.628 37.8845 126.625 39.5633C129.713 42.1394 133.215 40.9623 136.92 40.2483C134.614 44.3681 131.633 47.7739 130.378 52.1542C130.012 53.4374 129.414 54.4408 130.542 55.6372C132.617 57.9431 142.757 60.635 145.883 59.7087C151.964 57.8745 158.142 56.3767 164.388 55.2223C166.877 54.7689 171.065 55.6468 171.557 52.9454C172.097 49.9255 167.456 50.2921 165.324 48.1213C166.126 47.6858 166.885 47.1753 167.591 46.5968C169.328 44.8409 172.522 43.3936 171.634 40.6343C170.669 37.5758 167.398 36.4952 164.205 36.225C162.922 36.0935 161.629 36.0935 160.346 36.225C154.958 36.7984 149.642 37.907 144.474 39.5344C143.854 39.8444 143.154 39.9613 142.466 39.8702C141.778 39.779 141.134 39.484 140.615 39.023C141.889 38.4634 142.545 38.1064 143.249 37.8845C153.738 34.5575 164.457 32.0067 175.32 30.2528C177.201 29.9441 180.231 30.4072 180.443 28.0723C180.732 25.4191 177.654 25.1393 175.59 24.4639ZM155.097 43.8375C151.392 48.3432 145.922 49.9544 140.374 53.6014C142.979 45.0821 149.81 45.8057 155.097 43.8375Z" fill="#13335A"/>
<path d="M54.6505 26.2198C53.4339 25.4623 52.0719 24.9687 50.6526 24.7709C49.2332 24.5732 47.7882 24.6756 46.4109 25.0716C41.8184 26.0943 37.1487 26.7794 31.9386 27.7056C32.9299 24.9791 34.5884 22.5444 36.7627 20.6238C39.6572 18.096 42.4166 15.5103 44.269 12.0659C45.6584 9.48017 46.5653 6.94269 43.8059 4.79114C40.9114 2.52382 37.9398 -1.26792 34.0034 0.420517C26.4199 3.69125 20.245 8.93985 16.7234 16.7742C15.4306 19.6686 15.9323 21.8974 18.3154 24.0007C19.3285 24.898 22.001 24.8208 21.1134 26.9627C20.3319 28.8923 19.6854 31.0053 16.8296 31.5841C12.8063 32.3849 8.9663 34.0927 4.97195 35.1154C2.51166 35.7425 -0.33455 37.6722 0.0320811 39.1098C0.688158 41.6858 3.89136 42.5735 6.67004 42.641C8.02078 42.641 9.40047 41.8884 10.7609 41.4735C15.585 40.007 20.4669 38.4826 25.3393 37.0836C34.6531 34.3938 44.1446 32.3627 53.7435 31.0053C54.9689 30.8412 56.9081 31.0053 57.2265 29.1914C57.5449 27.3776 55.8372 26.982 54.6505 26.2198ZM26.005 18.1925C28.3781 14.1516 31.7375 10.7789 35.769 8.38993C33.6946 12.8088 30.7133 16.3593 26.005 18.1925Z" fill="#13335A"/>
<path d="M43.8438 37.3632C43.2106 37.2031 42.5474 37.2031 41.9142 37.3632C29.275 39.0324 16.7613 41.2225 4.78794 45.8343C3.53368 46.3167 1.42073 46.2781 1.70052 48.0727C1.83006 48.8676 2.17719 49.6111 2.70341 50.2207C3.22964 50.8304 3.91441 51.2825 4.68182 51.5268C6.59574 52.2743 8.72084 52.2743 10.6348 51.5268C13.6932 50.2725 16.771 48.9989 20.4952 49.5199C15.6711 51.6039 10.847 53.5818 6.11939 55.8202C4.31518 56.6789 0.861137 57.142 2.03822 59.9014C3.00303 62.2749 6.03256 63.5002 9.03315 63.0178C9.81042 62.8263 10.555 62.5207 11.2426 62.1108C21.0644 57.2867 31.5038 54.7782 42.3387 53.3599C44.3938 53.0898 47.6162 53.5239 48.2723 51.5171C49.2371 48.5551 44.9051 49.3752 43.9017 47.1658C44.442 46.7316 45.0402 46.201 45.6577 45.7765C47.5294 44.4064 50.7422 43.403 50.2116 40.9524C49.7195 38.2219 46.1401 38.3281 43.8438 37.3632Z" fill="#13335A"/>
<path d="M157.567 9.64444C151.055 13.5037 144.88 17.1411 138.773 20.8653C137.094 21.8783 134.373 22.7949 135.647 25.3806C136.776 27.6479 139.217 29.2399 141.947 28.2751C154.055 24.0009 166.704 22.3125 179.768 20.4408C174.365 12.9441 167.225 18.241 160.896 16.678C165.093 13.4169 169.753 11.8539 173.979 9.53829C175.561 8.66031 177.105 7.29029 174.944 6.03602C172.136 4.36689 169.464 1.95483 165.72 2.4083C162.555 2.79422 159.333 2.86176 156.197 3.431C148.99 4.73351 141.59 5.18697 134.18 7.80163C141.696 16.321 149.714 7.36746 157.567 9.64444Z" fill="#13335A"/>
</svg>
